<?xml version="1.0" encoding="UTF-8"?>
<svg version="1.1" xmlns="http://www.w3.org/2000/svg" width="1280" height="1280">
<path d="M0 0 C0.99 0 1.98 0 3 0 C3 0.66 3 1.32 3 2 C4.77119803 1.85866501 6.54195287 1.71176792 8.3125 1.5625 C9.29863281 1.48128906 10.28476562 1.40007812 11.30078125 1.31640625 C14.09375599 1.08187441 14.09375599 1.08187441 17 0 C19.84720688 -0.02833591 22.66366856 0.00195833 25.5078125 0.0859375 C26.76789627 0.11779648 26.76789627 0.11779648 28.05343628 0.15029907 C29.83387048 0.19656689 31.61423722 0.24549566 33.39453125 0.296875 C36.09361604 0.37410203 38.79281171 0.4416368 41.4921875 0.5078125 C43.22657818 0.55410382 44.96095385 0.60096128 46.6953125 0.6484375 C47.49252716 0.66828705 48.28974182 0.6881366 49.1111145 0.70858765 C54.45416721 0.86929199 59.69338183 1.35262565 65 2 C65 1.34 65 0.68 65 0 C65.99 0.33 66.98 0.66 68 1 C70.47893217 1.34182263 72.95210876 1.6524528 75.4375 1.9375 C93.19807556 4.06602519 93.19807556 4.06602519 99 6 C99.33 5.01 99.66 4.02 100 3 C100.33 4.32 100.66 5.64 101 7 C101.804375 6.979375 102.60875 6.95875 103.4375 6.9375 C106 7 106 7 107 8 C108.51165654 8.39148761 110.03469632 8.73972457 111.5625 9.0625 C112.80193359 9.32740234 112.80193359 9.32740234 114.06640625 9.59765625 C114.70449219 9.73042969 115.34257813 9.86320312 116 10 C116 9.34 116 8.68 116 8 C116.66 8 117.32 8 118 8 C118 8.66 118 9.32 118 10 C118.84884766 10.19916016 118.84884766 10.19916016 119.71484375 10.40234375 C120.44832031 10.57894531 121.18179688 10.75554687 121.9375 10.9375 C122.66839844 11.11152344 123.39929688 11.28554688 124.15234375 11.46484375 C126 12 126 12 127 13 C128.27875 12.95875 129.5575 12.9175 130.875 12.875 C134.74095683 12.80571762 134.74095683 12.80571762 137 14.5 C137.33 14.995 137.66 15.49 138 16 C139.485 15.505 139.485 15.505 141 15 C141 15.99 141 16.98 141 18 C141.99 18 142.98 18 144 18 C144 17.34 144 16.68 144 16 C145.32 16 146.64 16 148 16 C147.67 16.99 147.34 17.98 147 19 C147.78503906 19.24234375 148.57007813 19.4846875 149.37890625 19.734375 C159.0169522 22.80908904 159.0169522 22.80908904 162.625 25 C166.26503402 27.1570572 169.90671473 28.60401985 173.86328125 30.0703125 C176 31 176 31 178 33 C179.66258352 33.73153675 181.32764491 34.45824417 183.0078125 35.1484375 C185.74033604 36.31645737 188.36328982 37.6742125 191.0078125 39.02734375 C192.9359258 39.96871671 194.88105599 40.77236866 196.875 41.5625 C200 43 200 43 202 46 C204.55183404 47.20450304 204.55183404 47.20450304 207 48 C207 48.66 207 49.32 207 50 C207.556875 50.0825 208.11375 50.165 208.6875 50.25 C211.71260238 51.23111429 213.56043201 52.97694362 216 55 C217.66324401 56.00568242 219.32936253 57.00664799 221 58 C221.66 58.66 222.32 59.32 223 60 C223.928125 60.185625 223.928125 60.185625 224.875 60.375 C227.75509517 61.22208681 229.08196327 62.73945672 231 65 C231 65.66 231 66.32 231 67 C233.97 67.99 236.94 68.98 240 70 C240 70.99 240 71.98 240 73 C241.50523589 74.39098623 241.50523589 74.39098623 243.4375 75.5625 C246.9058296 77.81165919 246.9058296 77.81165919 248 80 C248.61875 79.79375 249.2375 79.5875 249.875 79.375 C250.57625 79.25125 251.2775 79.1275 252 79 C254 81 254 81 254.1953125 82.9453125 C254.13020833 84.96354167 254.06510417 86.98177083 254 89 C254.66 89 255.32 89 256 89 C256 90.32 256 91.64 256 93 C254.68 92.67 253.36 92.34 252 92 C251.67 92.66 251.34 93.32 251 94 C250.34 94 249.68 94 249 94 C248.46375 94.680625 247.9275 95.36125 247.375 96.0625 C244.29666704 99.86991182 240.71387605 102.82882063 237 106 C228.40550922 113.33139009 228.40550922 113.33139009 220.9375 121.75 C219 124 219 124 216.875 124.4375 C216.25625 124.623125 215.6375 124.80875 215 125 C214.71125 125.969375 214.4225 126.93875 214.125 127.9375 C213.75375 128.948125 213.3825 129.95875 213 131 C210 132.125 210 132.125 207 133 C205.86649466 135.01669827 205.86649466 135.01669827 205 137 C203.66666667 137.33333333 202.33333333 137.66666667 201 138 C199.94978897 139.84971696 199.94978897 139.84971696 199 142 C197 144.25 197 144.25 195 146 C194.34 146 193.68 146 193 146 C192.773125 146.556875 192.54625 147.11375 192.3125 147.6875 C190.62449964 150.66159588 188.53323483 152.72008865 186 155 C185.34 155 184.68 155 184 155 C184 155.66 184 156.32 184 157 C182.625 158.625 182.625 158.625 181 160 C180.34 160 179.68 160 179 160 C178.67 160.99 178.34 161.98 178 163 C176.33333333 164.66666667 174.66666667 166.33333333 173 168 C171.70480005 170.16620544 171.70480005 170.16620544 171 172 C171.66 172.33 172.32 172.66 173 173 C172.34 173.33 171.68 173.66 171 174 C170.38511719 173.78085937 169.77023437 173.56171875 169.13671875 173.3359375 C166.87174571 172.72644506 166.87174571 172.72644506 164.89453125 174.4765625 C164.20746094 175.18554688 163.52039063 175.89453125 162.8125 176.625 C162.11769531 177.31851563 161.42289063 178.01203125 160.70703125 178.7265625 C158.84131834 181.21133347 158.35909169 182.94504089 158 186 C157.2575 186.0825 156.515 186.165 155.75 186.25 C152.47638903 187.14280299 151.28034682 188.56238789 149 191 C148.34 191 147.68 191 147 191 C146.73703125 191.58910156 146.4740625 192.17820312 146.203125 192.78515625 C144.94575141 195.09986672 143.63010224 196.60397687 141.75 198.4375 C140.82380859 199.34242188 140.82380859 199.34242188 139.87890625 200.265625 C138.19681532 201.81832432 136.47755006 203.26249701 134.6875 204.6875 C132.15525835 206.86640561 131.39356922 208.1133209 130 211 C128.66666667 211.66666667 127.33333333 212.33333333 126 213 C124.39213381 214.53365698 122.87452187 216.12551776 121.3671875 217.7578125 C120 219 120 219 118 219 C117.67 219.99 117.34 220.98 117 222 C116.34 222 115.68 222 115 222 C114.67 222.99 114.34 223.98 114 225 C111.4375 226.1875 111.4375 226.1875 109 227 C109 227.99 109 228.98 109 230 C105.66666667 233 105.66666667 233 103 233 C102.773125 233.5775 102.54625 234.155 102.3125 234.75 C100.66511725 237.57408471 98.56545162 238.9976963 96 241 C95.443125 241.7425 94.88625 242.485 94.3125 243.25 C93.879375 243.8275 93.44625 244.405 93 245 C92.34 245 91.68 245 91 245 C91 246.32 91 247.64 91 249 C89.68 249 88.36 249 87 249 C86.7525 249.58523438 86.505 250.17046875 86.25 250.7734375 C84.81592202 253.32788889 83.24285666 254.75320419 81 256.625 C78.92339664 258.3733168 76.92037235 260.07962765 75 262 C75.33 262.99 75.66 263.98 76 265 C74.9171875 265.0928125 74.9171875 265.0928125 73.8125 265.1875 C70.08483095 266.26438217 68.59296172 268.14774211 66 271 C64.33333333 272.66666667 62.66666667 274.33333333 61 276 C60.401875 276.639375 59.80375 277.27875 59.1875 277.9375 C57.20247886 279.80909136 55.20476558 281.33996191 53 282.9375 C49.74660743 285.30963966 47.50645906 287.84371822 45 291 C44.01 291 43.02 291 42 291 C41.773125 291.7425 41.54625 292.485 41.3125 293.25 C39.73336584 296.55866205 37.8945294 297.79464426 35 300 C34.278125 300.9075 33.55625 301.815 32.8125 302.75 C32.214375 303.4925 31.61625 304.235 31 305 C30.34 305 29.68 305 29 305 C28.731875 305.639375 28.46375 306.27875 28.1875 306.9375 C27 309 27 309 24 310 C24.33 310.99 24.66 311.98 25 313 C23.68 313 22.36 313 21 313 C21 313.99 21 314.98 21 316 C18 318 18 318 15 318 C14.7525 318.5775 14.505 319.155 14.25 319.75 C12.81700012 322.32939979 11.21575324 324.06121592 9 326 C8.34 326 7.68 326 7 326 C6.73832031 326.58910156 6.47664062 327.17820312 6.20703125 327.78515625 C4.9357725 330.11785434 3.59769469 331.60354368 1.6875 333.4375 C1.06359375 334.04078125 0.4396875 334.6440625 -0.203125 335.265625 C-0.79609375 335.83796875 -1.3890625 336.4103125 -2 337 C-2.845625 337.886875 -3.69125 338.77375 -4.5625 339.6875 C-7 342 -7 342 -10.25 344.125 C-13.26003892 345.77064122 -13.26003892 345.77064122 -14 349 C-18.45714286 353 -18.45714286 353 -21 353 C-21.268125 353.639375 -21.53625 354.27875 -21.8125 354.9375 C-23 357 -23 357 -26 358 C-26.4021875 358.86625 -26.4021875 358.86625 -26.8125 359.75 C-28.21594823 362.40916506 -30.09088602 363.86476269 -32.421875 365.71484375 C-35.78241777 368.45152338 -38.69804175 371.68399718 -41.6875 374.8125 C-44 377 -44 377 -46 377 C-46.33 377.99 -46.66 378.98 -47 380 C-47.66 380 -48.32 380 -49 380 C-49 380.66 -49 381.32 -49 382 C-50.57421875 383.55078125 -50.57421875 383.55078125 -52.6875 385.3125 C-55.96331639 388.05776986 -59.00976632 390.95096041 -62 394 C-65.20306915 397.25523521 -68.41282262 400.50375407 -71.625 403.75 C-72.48351562 404.62527344 -73.34203125 405.50054688 -74.2265625 406.40234375 C-75.0515625 407.23378906 -75.8765625 408.06523438 -76.7265625 408.921875 C-77.47502441 409.68081055 -78.22348633 410.43974609 -78.99462891 411.22167969 C-81 413 -81 413 -84 414 C-85.67067133 415.99665598 -87.33752986 417.99651034 -89 420 C-89.66 420 -90.32 420 -91 420 C-91 420.66 -91 421.32 -91 422 C-91.66 422 -92.32 422 -93 422 C-93.3403125 422.8353125 -93.3403125 422.8353125 -93.6875 423.6875 C-96.60199231 428.82255787 -101.51889206 432.28163384 -106 436 C-107.11375 437.1446875 -107.11375 437.1446875 -108.25 438.3125 C-110 440 -110 440 -112 440 C-112.2475 440.639375 -112.495 441.27875 -112.75 441.9375 C-114 444 -114 444 -116.125 444.75 C-116.74375 444.8325 -117.3625 444.915 -118 445 C-118.33 446.32 -118.66 447.64 -119 449 C-119.66 449 -120.32 449 -121 449 C-121.33 449.99 -121.66 450.98 -122 452 C-123.66666667 453.66666667 -125.33333333 455.33333333 -127 457 C-128.05566977 460.16700931 -127.97926374 460.96428241 -127 464 C-126.67 464.66 -126.34 465.32 -126 466 C-123.12817413 466.47618812 -120.32879853 466.84167597 -117.4375 467.125 C-116.63119141 467.21136719 -115.82488281 467.29773438 -114.99414062 467.38671875 C-112.99695936 467.59943628 -110.99857263 467.80077855 -109 468 C-109 467.34 -109 466.68 -109 466 C-107.35 466 -105.7 466 -104 466 C-104 466.33 -104 466.66 -104 467 C-99.10397336 468.18169023 -94.1765952 468.40377929 -89.16796875 468.71875 C-88.2173909 468.78155151 -87.26681305 468.84435303 -86.28742981 468.90905762 C-83.25431581 469.10917881 -80.22094579 469.30497729 -77.1875 469.5 C-74.16479099 469.6953558 -71.14216238 469.8917265 -68.1197052 470.09094238 C-66.24216161 470.21461203 -64.36447085 470.33607408 -62.48661804 470.45495605 C-57.29016484 470.79626104 -52.16345468 471.32579547 -47 472 C-45.10555001 472.08354254 -43.20878307 472.13053659 -41.3125 472.125 C-40.42175781 472.12757813 -39.53101563 472.13015625 -38.61328125 472.1328125 C-35.9564803 472.06403939 -35.9564803 472.06403939 -33.23046875 471.4296875 C-32.49441406 471.28789063 -31.75835938 471.14609375 -31 471 C-30.67 471.33 -30.34 471.66 -30 472 C-21.47696897 474.15602366 -12.73985298 474.55180241 -4 475 C-4 474.34 -4 473.68 -4 473 C-3.34 473 -2.68 473 -2 473 C-2 473.66 -2 474.32 -2 475 C-1.37351562 474.98839844 -0.74703125 474.97679687 -0.1015625 474.96484375 C1.12433594 474.95130859 1.12433594 474.95130859 2.375 474.9375 C3.18710937 474.92589844 3.99921875 474.91429687 4.8359375 474.90234375 C7 475 7 475 9 476 C9 475.34 9 474.68 9 474 C10.65 474.66 12.3 475.32 14 476 C14 475.34 14 474.68 14 474 C15.19625 474.144375 16.3925 474.28875 17.625 474.4375 C23.0569733 475.06892365 28.49881071 475.29733639 33.9609375 475.5234375 C37.25683489 476.04027488 37.93881797 476.53416874 40 479 C40.99 479.33 41.98 479.66 43 480 C43 480.66 43 481.32 43 482 C41.68 481.67 40.36 481.34 39 481 C38.67 484.3 38.34 487.6 38 491 C37.01 491 36.02 491 35 491 C33.68 493.64 32.36 496.28 31 499 C30.34 499 29.68 499 29 499 C28.8453125 500.3303125 28.8453125 500.3303125 28.6875 501.6875 C27.98809298 505.0573702 26.91257489 507.17271538 25 510 C26.32 510.66 27.64 511.32 29 512 C29 512.66 29 513.32 29 514 C27.02 514.66 25.04 515.32 23 516 C22.67 515.67 22.34 515.34 22 515 C22 516.65 22 518.3 22 520 C20.68 520 19.36 520 18 520 C16.97908721 522.03720606 15.96252041 524.07622254 14.95703125 526.12109375 C12.58348606 530.92488998 10.1180568 535.66531235 7.5625 540.375 C4.23318429 546.51525112 1.08275373 552.7328633 -2 559 C-2.66 559 -3.32 559 -4 559 C-4 560.32 -4 561.64 -4 563 C-4.66 563 -5.32 563 -6 563 C-6.268125 563.886875 -6.53625 564.77375 -6.8125 565.6875 C-7.9250635 568.7909666 -9.10195778 571.31110685 -11 574 C-11.66 574 -12.32 574 -13 574 C-13.12375 574.7425 -13.2475 575.485 -13.375 576.25 C-13.95486701 578.80141485 -14.73708739 580.7267573 -16 583 C-16.66 583 -17.32 583 -18 583 C-18.10441406 583.72445312 -18.20882813 584.44890625 -18.31640625 585.1953125 C-19.06446892 588.26450677 -20.21558566 590.23950274 -21.9375 592.875 C-23.83299161 595.89876042 -25.34449642 598.52624386 -26.1875 602 C-27 605 -27 605 -30 607 C-31.38650888 609.54052389 -32.53655207 612.14415638 -33.71875 614.78515625 C-35 617 -35 617 -38 618 C-37.62875 619.36125 -37.62875 619.36125 -37.25 620.75 C-37.1675 621.8225 -37.085 622.895 -37 624 C-38.875 626.0625 -38.875 626.0625 -41 628 C-41.79681318 630.64184541 -41.79681318 630.64184541 -42 633 C-42.66 633 -43.32 633 -44 633 C-44.103125 633.598125 -44.20625 634.19625 -44.3125 634.8125 C-45.09911856 637.31537724 -46.13545831 638.21314755 -48 640 C-48.33 640.99 -48.66 641.98 -49 643 C-49.66 643 -50.32 643 -51 643 C-51.103125 643.70125 -51.20625 644.4025 -51.3125 645.125 C-52.09359003 648.39137647 -53.42058743 651.0471852 -55 654 C-55.66 654 -56.32 654 -57 654 C-57.14695312 654.61746094 -57.29390625 655.23492188 -57.4453125 655.87109375 C-58.98351106 661.67911936 -61.08468737 666.06760942 -64.5703125 670.94921875 C-66.3669409 673.52634966 -67.68586624 676.1527102 -69 679 C-69.66 679 -70.32 679 -71 679 C-71.33 680.98 -71.66 682.96 -72 685 C-72.66 685 -73.32 685 -74 685 C-74.103125 685.71027344 -74.20625 686.42054688 -74.3125 687.15234375 C-75.08652446 690.35838826 -76.35088905 692.71223372 -78 695.5625 C-79.81243649 698.70376612 -81.32606329 701.41971123 -82 705 C-82.99 705 -83.98 705 -85 705 C-85.33 706.32 -85.66 707.64 -86 709 C-114.79929776 709.04563516 -143.59859125 709.08102451 -172.39791805 709.10213066 C-175.79872602 709.10463204 -179.19953393 709.10722069 -182.6003418 709.10986328 C-183.27737518 709.1103879 -183.95440856 709.11091252 -184.6519581 709.11145304 C-195.6112359 709.12015324 -206.5704927 709.1359211 -217.52975804 709.15430559 C-228.77680332 709.17301535 -240.0238381 709.18396932 -251.27089971 709.18817699 C-257.58742581 709.19078569 -263.90390428 709.19692265 -270.22041512 709.21146011 C-276.16533401 709.22503155 -282.11018564 709.2292235 -288.05511856 709.22621536 C-290.23719714 709.22676572 -292.41927797 709.23074573 -294.60134315 709.23841095 C-297.58111823 709.24836521 -300.56063955 709.245967 -303.54042053 709.24050903 C-304.40327591 709.24633472 -305.26613128 709.2521604 -306.15513378 709.25816262 C-311.11979959 709.23359376 -315.23700661 708.5694101 -320 707 C-322.24142571 706.53943307 -324.4920255 706.12102867 -326.75 705.75 C-327.85859375 705.55921875 -328.9671875 705.3684375 -330.109375 705.171875 C-333.19830022 704.69662195 -333.19830022 704.69662195 -336 707 C-338.125 706.8125 -338.125 706.8125 -340 706 C-340.33 705.01 -340.66 704.02 -341 703 C-344.51190809 701.77030122 -344.51190809 701.77030122 -348 701 C-348 700.34 -348 699.68 -348 699 C-350.97 699.33 -353.94 699.66 -357 700 C-357.99 698.515 -357.99 698.515 -359 697 C-361.21416001 696.27170632 -361.21416001 696.27170632 -363.75 695.9375 C-367.66188899 695.26109268 -371.25270042 694.33832128 -375 693 C-376.32911682 692.65023242 -377.66082739 692.30903983 -379 692 C-379 691.34 -379 690.68 -379 690 C-380.65 689.34 -382.3 688.68 -384 688 C-384.33 688.66 -384.66 689.32 -385 690 C-385.474375 689.4225 -385.94875 688.845 -386.4375 688.25 C-389.44337407 685.61069594 -392.3845247 684.39107205 -396.07421875 682.9296875 C-398 682 -398 682 -399 680 C-400.093125 679.690625 -401.18625 679.38125 -402.3125 679.0625 C-405.65404457 678.09968207 -407.52634111 677.37471254 -410 675 C-410 674.34 -410 673.68 -410 673 C-410.804375 672.87625 -410.804375 672.87625 -411.625 672.75 C-414.87340691 671.72418729 -417.28751859 670.03436106 -420 668 C-420 667.34 -420 666.68 -420 666 C-420.70125 665.731875 -421.4025 665.46375 -422.125 665.1875 C-423.548125 664.5996875 -423.548125 664.5996875 -425 664 C-426.4540625 663.4121875 -426.4540625 663.4121875 -427.9375 662.8125 C-431.32004839 660.81058361 -433.12127859 658.67096836 -435.55078125 655.6484375 C-437.42707336 653.51421844 -439.47164673 652.26417663 -442 651 C-442.66 650.67 -443.32 650.34 -444 650 C-444 649.01 -444 648.02 -444 647 C-445.32 646.67 -446.64 646.34 -448 646 C-448 645.34 -448 644.68 -448 644 C-448.99 644 -449.98 644 -451 644 C-451 642.68 -451 641.36 -451 640 C-451.598125 639.731875 -452.19625 639.46375 -452.8125 639.1875 C-456.79588931 637.02508866 -459.31791495 633.60694196 -462 630 C-462 629.34 -462 628.68 -462 628 C-462.66 628 -463.32 628 -464 628 C-464 626.68 -464 625.36 -464 624 C-464.5775 623.773125 -465.155 623.54625 -465.75 623.3125 C-468.59739809 621.65151778 -470.12067193 619.68475439 -472 617 C-472 616.34 -472 615.68 -472 615 C-473.32 615.33 -474.64 615.66 -476 616 C-477 614 -477 614 -477 610 C-478.442372 607.24638072 -479.80040399 605.19959601 -482 603 C-482.2165625 602.0409375 -482.2165625 602.0409375 -482.4375 601.0625 C-483.10687442 598.60812713 -484.19327559 597.72817117 -486 596 C-486 595.34 -486 594.68 -486 594 C-486.99 594 -487.98 594 -489 594 C-489.061875 592.865625 -489.12375 591.73125 -489.1875 590.5625 C-489.72783143 586.08092753 -491.49276633 582.87535941 -493.8046875 579.05078125 C-495 577 -495 577 -496.0625 574 C-496.81707416 571.78815064 -496.81707416 571.78815064 -499.125 571.1875 C-499.74375 571.125625 -500.3625 571.06375 -501 571 C-500.34 570.01 -499.68 569.02 -499 568 C-500.32 568.33 -501.64 568.66 -503 569 C-502.34 567.68 -501.68 566.36 -501 565 C-501.99 563.515 -501.99 563.515 -503 562 C-502.67 561.01 -502.34 560.02 -502 559 C-502.2368808 556.76491633 -502.2368808 556.76491633 -502.8125 554.4375 C-502.98394531 553.65246094 -503.15539062 552.86742187 -503.33203125 552.05859375 C-503.89043328 549.80666916 -503.89043328 549.80666916 -506 548 C-506.70381157 546.01276732 -507.3711811 544.01222047 -508 542 C-508.33 541.34 -508.66 540.68 -509 540 C-509.06996014 538.29297265 -509.08440154 536.58331997 -509.0625 534.875 C-509.05347656 533.96492187 -509.04445313 533.05484375 -509.03515625 532.1171875 C-509.02355469 531.41851563 -509.01195312 530.71984375 -509 530 C-509.99 530.33 -510.98 530.66 -512 531 C-512 529.68 -512 528.36 -512 527 C-511.34 527 -510.68 527 -510 527 C-510.309375 525.865625 -510.61875 524.73125 -510.9375 523.5625 C-512.06931233 519.07538586 -512.59511294 514.60292653 -513 510 C-514.32 509.67 -515.64 509.34 -517 509 C-516.52433594 507.11667969 -516.52433594 507.11667969 -516.0390625 505.1953125 C-514.37156489 496.85782445 -514.529955 488.3458733 -514.375 479.875 C-514.33674586 478.13800284 -514.29769003 476.40102315 -514.2578125 474.6640625 C-514.16262741 470.44285295 -514.07830663 466.221555 -514 462 C-514.66 462 -515.32 462 -516 462 C-515.49396008 459.83125748 -515.00016187 458.00032373 -514 456 C-513.92818179 453.28239892 -513.90700494 450.59140612 -513.9375 447.875 C-513.94201172 447.12089844 -513.94652344 446.36679687 -513.95117188 445.58984375 C-513.96296501 443.72652873 -513.98090058 441.86325445 -514 440 C-513.01 440.33 -512.02 440.66 -511 441 C-511.33 438.69 -511.66 436.38 -512 434 C-511.01 434.33 -510.02 434.66 -509 435 C-509.495 433.515 -509.495 433.515 -510 432 C-509.45485809 429.42635636 -508.84585124 426.96047935 -508.125 424.4375 C-507.93808594 423.75236328 -507.75117188 423.06722656 -507.55859375 422.36132812 C-506.16771978 417.33543956 -506.16771978 417.33543956 -505 415 C-504.34 415 -503.68 415 -503 415 C-503 411.7 -503 408.4 -503 405 C-502.01 404.67 -501.02 404.34 -500 404 C-499.896875 403.113125 -499.79375 402.22625 -499.6875 401.3125 C-499 398 -499 398 -497.4375 395.5625 C-495.57857005 392.2487553 -495.78015687 389.73733329 -496 386 C-494.68 386 -493.36 386 -492 386 C-492 385.01 -492 384.02 -492 383 C-491.34 383 -490.68 383 -490 383 C-490.20625 382.0925 -490.4125 381.185 -490.625 380.25 C-491.0127245 376.88972103 -490.80411967 375.75924185 -489 373 C-488.01 373 -487.02 373 -486 373 C-486 372.01 -486 371.02 -486 370 C-485.01 370 -484.02 370 -483 370 C-482.96132813 369.06027344 -482.96132813 369.06027344 -482.921875 368.1015625 C-482.83679688 366.87566406 -482.83679688 366.87566406 -482.75 365.625 C-482.70359375 364.81289063 -482.6571875 364.00078125 -482.609375 363.1640625 C-482.40828125 362.44992187 -482.2071875 361.73578125 -482 361 C-480.68836076 360.29160412 -479.35148516 359.62905491 -478 359 C-476.31254677 356.83938639 -476.31254677 356.83938639 -474.875 354.375 C-473.3671875 351.8984375 -473.3671875 351.8984375 -472 350 C-471.34 350 -470.68 350 -470 350 C-469.67 348.35 -469.34 346.7 -469 345 C-468.34 345 -467.68 345 -467 345 C-466.67 343.68 -466.34 342.36 -466 341 C-465.34 341 -464.68 341 -464 341 C-463.67 338.36 -463.34 335.72 -463 333 C-460.69 333.33 -458.38 333.66 -456 334 C-455.938125 333.113125 -455.87625 332.22625 -455.8125 331.3125 C-454.80546264 327.20688614 -453.21120491 325.67600409 -450 323 C-449.01 322.67 -448.02 322.34 -447 322 C-447 321.34 -447 320.68 -447 320 C-446.34 320 -445.68 320 -445 320 C-444.67 319.01 -444.34 318.02 -444 317 C-443.34 317 -442.68 317 -442 317 C-442 316.34 -442 315.68 -442 315 C-441.195625 314.54625 -440.39125 314.0925 -439.5625 313.625 C-436.84763807 312.26579005 -436.84763807 312.26579005 -436.1875 309.8125 C-436.125625 309.214375 -436.06375 308.61625 -436 308 C-435.05125 307.9175 -434.1025 307.835 -433.125 307.75 C-432.09375 307.5025 -431.0625 307.255 -430 307 C-428.81669817 305.13355094 -428.81669817 305.13355094 -428 303 C-424.57142857 300 -424.57142857 300 -422 300 C-422 299.34 -422 298.68 -422 298 C-416.58823529 294 -416.58823529 294 -414 294 C-413.67 293.01 -413.34 292.02 -413 291 C-409.9375 289.8125 -409.9375 289.8125 -407 289 C-407 288.34 -407 287.68 -407 287 C-405.68 287 -404.36 287 -403 287 C-402.34 285.02 -401.68 283.04 -401 281 C-398.03 280.67 -395.06 280.34 -392 280 C-392 279.34 -392 278.68 -392 278 C-388.04 276.02 -388.04 276.02 -384 274 C-384 272.35 -384 270.7 -384 269 C-381.36 269.66 -378.72 270.32 -376 271 C-376 269.68 -376 268.36 -376 267 C-375.484375 267.185625 -374.96875 267.37125 -374.4375 267.5625 C-371.14091261 268.15419517 -368.27754265 267.567267 -365 267 C-364.67 266.01 -364.34 265.02 -364 264 C-362.15820312 263.24804688 -362.15820312 263.24804688 -359.78125 262.71875 C-358.50701172 262.41517578 -358.50701172 262.41517578 -357.20703125 262.10546875 C-355.40234375 261.70182292 -353.59765625 261.29817708 -351.79296875 260.89453125 C-350.51873047 260.59095703 -350.51873047 260.59095703 -349.21875 260.28125 C-348.0421582 260.01924805 -348.0421582 260.01924805 -346.84179688 259.75195312 C-346.23400391 259.50380859 -345.62621094 259.25566406 -345 259 C-344.67 258.01 -344.34 257.02 -344 256 C-342.68 256 -341.36 256 -340 256 C-340 256.66 -340 257.32 -340 258 C-339.01 257.34 -338.02 256.68 -337 256 C-334.95703125 255.5859375 -334.95703125 255.5859375 -332.8125 255.375 C-330.9253125 255.189375 -330.9253125 255.189375 -329 255 C-329 254.34 -329 253.68 -329 253 C-328.07316406 252.93941406 -327.14632812 252.87882813 -326.19140625 252.81640625 C-324.99386719 252.73261719 -323.79632813 252.64882813 -322.5625 252.5625 C-321.36753906 252.48128906 -320.17257812 252.40007812 -318.94140625 252.31640625 C-316.11429756 252.32343886 -316.11429756 252.32343886 -315 251 C-311.37733706 250.71471529 -307.75469566 250.55087772 -304.125 250.37890625 C-303.09375 250.25386719 -302.0625 250.12882813 -301 250 C-300.67 249.34 -300.34 248.68 -300 248 C-300 248.66 -300 249.32 -300 250 C-297.39547729 249.85913398 -294.79149803 249.71251536 -292.1875 249.5625 C-291.44951172 249.52318359 -290.71152344 249.48386719 -289.95117188 249.44335938 C-286.76928658 249.25618965 -284.03837622 249.01279207 -281 248 C-279.66474283 247.92026524 -278.32587917 247.89228662 -276.98828125 247.90234375 C-275.85229492 247.90717773 -275.85229492 247.90717773 -274.69335938 247.91210938 C-273.90767578 247.92048828 -273.12199219 247.92886719 -272.3125 247.9375 C-271.51521484 247.94201172 -270.71792969 247.94652344 -269.89648438 247.95117188 C-267.93095743 247.9629415 -265.96546915 247.98087652 -264 248 C-263.67 245.03 -263.34 242.06 -263 239 C-261.68 239 -260.36 239 -259 239 C-259.03480469 238.02160156 -259.03480469 238.02160156 -259.0703125 237.0234375 C-259.17583753 231.91301097 -259.01926302 227.79574967 -257 223 C-257.66 223 -258.32 223 -259 223 C-258.67 222.34 -258.34 221.68 -258 221 C-257.67 221 -257.34 221 -257 221 C-256.74605469 219.78441406 -256.49210937 218.56882812 -256.23046875 217.31640625 C-255.88350358 215.73161937 -255.53580958 214.14699194 -255.1875 212.5625 C-255.02185547 211.76005859 -254.85621094 210.95761719 -254.68554688 210.13085938 C-254.22300247 208.06250042 -253.62023759 206.02666263 -253 204 C-252.01 203.67 -251.02 203.34 -250 203 C-249.80185739 196.91591528 -249.80185739 196.91591528 -251 191 C-250.401875 190.835 -249.80375 190.67 -249.1875 190.5 C-245.81472202 188.18723796 -245.1668452 184.80108663 -244 181 C-243.34 181 -242.68 181 -242 181 C-241.896875 179.7625 -241.79375 178.525 -241.6875 177.25 C-241.23896671 173.59124988 -240.32336217 171.88096909 -238 169 C-237.26739841 166.68652128 -236.588562 164.354248 -236 162 C-235.34 162 -234.68 162 -234 162 C-233.88785156 161.28457031 -233.77570313 160.56914062 -233.66015625 159.83203125 C-232.95543995 156.80884002 -231.86712202 154.43677312 -230.4375 151.6875 C-229.98246094 150.80449219 -229.52742188 149.92148437 -229.05859375 149.01171875 C-228.70925781 148.34785156 -228.35992187 147.68398438 -228 147 C-227.34 147 -226.68 147 -226 147 C-225.67 145.68 -225.34 144.36 -225 143 C-224.34 143 -223.68 143 -223 143 C-223.33 141.35 -223.66 139.7 -224 138 C-223.01 138 -222.02 138 -221 138 C-221 137.01 -221 136.02 -221 135 C-219.68 134.67 -218.36 134.34 -217 134 C-216.9175 133.29875 -216.835 132.5975 -216.75 131.875 C-215.21157701 125.97771189 -211.26090018 122.14877123 -207 118 C-206.34 117.01 -205.68 116.02 -205 115 C-204.34 115 -203.68 115 -203 115 C-202.62875 113.824375 -202.62875 113.824375 -202.25 112.625 C-200.79075497 109.56058543 -199.94985044 109.38274239 -197 108 C-195.90833725 106.06669397 -195.90833725 106.06669397 -195 104 C-193.5 102.25 -193.5 102.25 -192 101 C-191.34 101 -190.68 101 -190 101 C-189.87625 100.401875 -189.7525 99.80375 -189.625 99.1875 C-189 97 -189 97 -187 94 C-186.01 94 -185.02 94 -184 94 C-183.731875 93.360625 -183.46375 92.72125 -183.1875 92.0625 C-182 90 -182 90 -179 89 C-179 88.34 -179 87.68 -179 87 C-174.13513514 81.45945946 -174.13513514 81.45945946 -170 81 C-170 80.01 -170 79.02 -170 78 C-168.515 77.01 -168.515 77.01 -167 76 C-166.67 75.01 -166.34 74.02 -166 73 C-164.68 73.33 -163.36 73.66 -162 74 C-162.061875 72.824375 -162.061875 72.824375 -162.125 71.625 C-162 69 -162 69 -160 67 C-156.875 66.875 -156.875 66.875 -154 67 C-153.67 66.01 -153.34 65.02 -153 64 C-148.66666667 61 -148.66666667 61 -146 61 C-146 60.34 -146 59.68 -146 59 C-145.34 58.67 -144.68 58.34 -144 58 C-143.67 57.01 -143.34 56.02 -143 55 C-142.31292969 54.91492188 -141.62585938 54.82984375 -140.91796875 54.7421875 C-137.29776395 53.82138574 -134.43568438 52.09865446 -131.3125 50.125 C-130.73177734 49.77308594 -130.15105469 49.42117188 -129.55273438 49.05859375 C-126.61159171 47.22930501 -124.95124964 45.92687445 -123 43 C-123 42.34 -123 41.68 -123 41 C-122.11554199 41.05269043 -121.23108398 41.10538086 -120.31982422 41.15966797 C-116.69580049 40.98536943 -114.98453486 40.25608956 -111.8828125 38.4453125 C-110.47708984 37.64673828 -110.47708984 37.64673828 -109.04296875 36.83203125 C-108.08003906 36.26871094 -107.11710937 35.70539063 -106.125 35.125 C-99.803065 31.44786912 -94.23234606 28.35072184 -87 27 C-87 26.34 -87 25.68 -87 25 C-86.17757813 24.75765625 -85.35515625 24.5153125 -84.5078125 24.265625 C-78.24682212 22.38588193 -72.14279265 20.38084478 -66.12109375 17.83203125 C-64 17 -64 17 -61.84765625 16.51171875 C-59.77164234 16.1001235 -59.77164234 16.1001235 -58 14 C-55.31160615 13.73008094 -52.70858064 13.91262643 -50 14 C-50 13.34 -50 12.68 -50 12 C-48.62714844 11.74476563 -48.62714844 11.74476563 -47.2265625 11.484375 C-46.03804687 11.24203125 -44.84953125 10.9996875 -43.625 10.75 C-42.44164062 10.51796875 -41.25828125 10.2859375 -40.0390625 10.046875 C-36.89813187 9.30713529 -36.89813187 9.30713529 -35.5859375 6.890625 C-35.39257812 6.26671875 -35.19921875 5.6428125 -35 5 C-34.01 5 -33.02 5 -32 5 C-31.34 5.99 -30.68 6.98 -30 8 C-29.67 7.67 -29.34 7.34 -29 7 C-26.34536879 6.54540142 -23.67810862 6.29756762 -21 6 C-21 5.01 -21 4.02 -21 3 C-20.34 3 -19.68 3 -19 3 C-19 3.66 -19 4.32 -19 5 C-18.01 5 -17.02 5 -16 5 C-16 4.34 -16 3.68 -16 3 C-15.39671875 3.01160156 -14.7934375 3.02320313 -14.171875 3.03515625 C-13.37265625 3.04417969 -12.5734375 3.05320312 -11.75 3.0625 C-10.96109375 3.07410156 -10.1721875 3.08570313 -9.359375 3.09765625 C-7.01639655 3.08701023 -7.01639655 3.08701023 -4.890625 2.43359375 C-3 2 -3 2 0 3 C0 2.01 0 1.02 0 0 Z M-262 246 C-262.33 246.99 -262.66 247.98 -263 249 C-262.34 249 -261.68 249 -261 249 C-261.33 248.01 -261.66 247.02 -262 246 Z " fill="#FFFFFF" transform="translate(598,253)"/>
<path d="M0 0 C2.6875 -0.3125 2.6875 -0.3125 5 0 C4.67 1.32 4.34 2.64 4 4 C4.66 4.433125 5.32 4.86625 6 5.3125 C6.66 5.869375 7.32 6.42625 8 7 C8 7.99 8 8.98 8 10 C8.66 10 9.32 10 10 10 C11.3245153 11.93009324 12.5589053 13.92233397 13.75 15.9375 C14.4619476 17.13246159 15.17550085 18.32646795 15.890625 19.51953125 C16.24447266 20.11072754 16.59832031 20.70192383 16.96289062 21.31103516 C18.83530359 24.36031786 20.89902135 27.27787584 22.96875 30.1953125 C24 32 24 32 24 35 C24.99 35.33 25.98 35.66 27 36 C28.27390778 38.17835274 29.37503015 40.28460909 30.4375 42.5625 C31.05193911 43.84121515 31.66652169 45.11986136 32.28125 46.3984375 C33.13203125 48.18121094 33.13203125 48.18121094 34 50 C34.8082064 51.56472519 35.61967075 53.12778278 36.4375 54.6875 C38 58 38 58 38 61 C38.66 61 39.32 61 40 61 C40.33773438 61.98742187 40.67546875 62.97484375 41.0234375 63.9921875 C41.47365533 65.28656377 41.92419284 66.58082887 42.375 67.875 C42.59671875 68.52597656 42.8184375 69.17695313 43.046875 69.84765625 C44.06962626 72.76550545 44.78556651 74.78556651 47 77 C48.69544479 81.14442059 49.2125756 84.5359125 49 89 C49.66 89 50.32 89 51 89 C51 90.65 51 92.3 51 94 C51.99 94.33 52.98 94.66 54 95 C54.87890625 97.3984375 54.87890625 97.3984375 55.5625 100.375 C56.38345773 103.8907399 56.97116154 105.95674231 59 109 C59 110.32 59 111.64 59 113 C59.61122386 115.47332444 60.25825249 117.92079309 60.9375 120.375 C62.94749035 127.93955498 63.75500893 135.16028578 64 143 C64.5765332 142.84225098 65.15306641 142.68450195 65.74707031 142.52197266 C69.37957984 141.68037043 73.03546152 141.58136325 76.75 141.375 C77.5234375 141.3234375 78.296875 141.271875 79.09375 141.21875 C84.21335822 140.92669181 88.92993039 141.22444141 94 142 C94 141.34 94 140.68 94 140 C94.7425 140.20625 95.485 140.4125 96.25 140.625 C98.95931611 141.27218132 98.95931611 141.27218132 100.9375 139.9375 C103 139 103 139 105.60546875 139.90234375 C109.59819501 141.19343245 113.21024156 141.44425099 117.375 141.625 C118.11105469 141.66367187 118.84710937 141.70234375 119.60546875 141.7421875 C121.40327406 141.83557998 123.20160108 141.9188371 125 142 C125 141.34 125 140.68 125 140 C125.66 140 126.32 140 127 140 C127 140.66 127 141.32 127 142 C128.32451172 142.07347656 128.32451172 142.07347656 129.67578125 142.1484375 C136.45430543 142.57073009 142.9856023 143.26199234 149.64453125 144.58984375 C152.45601951 145.07940638 155.15282204 145.15390151 158 145 C158 145.66 158 146.32 158 147 C159.19625 147.12375 160.3925 147.2475 161.625 147.375 C165.28102133 147.82227921 168.52505893 148.75894962 172 150 C172.66 150 173.32 150 174 150 C174.99 150 175.98 150 177 150 C177.33 150.99 177.66 151.98 178 153 C180.4960256 153.95762601 180.4960256 153.95762601 183.4375 154.5625 C188.8 155.8 188.8 155.8 191 158 C194.58343976 158.16677282 194.58343976 158.16677282 198 158 C198.33 158.99 198.66 159.98 199 161 C201.83976142 162.59409482 201.83976142 162.59409482 205.25 164 C209.36140026 165.78594762 213.18295039 167.65532933 217 170 C218.76197207 170.91313881 220.53275984 171.80949486 222.3125 172.6875 C223.19550781 173.12449219 224.07851562 173.56148437 224.98828125 174.01171875 C225.65214844 174.33785156 226.31601563 174.66398438 227 175 C227 174.34 227 173.68 227 173 C230.42298577 174.14099526 231.14758766 175.00085621 233 178 C233 178.99 233 179.98 233 181 C233.763125 181.268125 234.52625 181.53625 235.3125 181.8125 C237.92313504 182.96603641 239.07385089 183.98629865 241 186 C241.99 186.33 242.98 186.66 244 187 C245.66666667 188.66666667 247.33333333 190.33333333 249 192 C249.825 192.495 250.65 192.99 251.5 193.5 C254.48759269 195.29255562 256.57145734 197.51074378 259 200 C260.3921875 201.0828125 260.3921875 201.0828125 261.8125 202.1875 C262.534375 202.785625 263.25625 203.38375 264 204 C264 204.66 264 205.32 264 206 C264.86625 206.3403125 264.86625 206.3403125 265.75 206.6875 C268.59591381 208.34761639 269.99841921 210.39187957 272 213 C272.9075 213.886875 273.815 214.77375 274.75 215.6875 C277 218 277 218 277 220 C277.5775 220.04125 278.155 220.0825 278.75 220.125 C281.51445236 221.20006481 282.34824408 222.69229922 283.8515625 225.17578125 C285.6436067 228.02232764 287.756078 230.61914913 289.828125 233.265625 C291 235 291 235 291 237 C291.66 237 292.32 237 293 237 C294.078125 238.6796875 294.078125 238.6796875 295.25 240.875 C297.17125946 244.12106822 297.73092696 244.8781556 301.3125 246.5 C302.199375 246.665 303.08625 246.83 304 247 C304 247.66 304 248.32 304 249 C303.01 249 302.02 249 301 249 C301.84884766 250.32064453 301.84884766 250.32064453 302.71484375 251.66796875 C303.45613116 252.84089187 304.19699427 254.01408322 304.9375 255.1875 C305.31068359 255.76564453 305.68386719 256.34378906 306.06835938 256.93945312 C308.15834341 260.27213038 309.53461241 263.07744745 310 267 C310.66 267 311.32 267 312 267 C316.96154774 275.67963066 321.01098401 284.07262194 323.89453125 293.66015625 C324.90933179 297.00544229 324.90933179 297.00544229 326.51171875 299.9765625 C328.18515713 303.37614599 329.08434288 306.63842581 330 310.3125 C331.6824984 316.9061838 333.54587645 323.36995969 336.078125 329.69140625 C337.23591922 333.84671008 337.21942256 337.58966832 337.125 341.875 C337.11597656 342.65875 337.10695313 343.4425 337.09765625 344.25 C337.07428063 346.16680055 337.03841653 348.08344191 337 350 C337.99 350.33 338.98 350.66 340 351 C339.01 351.495 339.01 351.495 338 352 C338.37904208 355.29075996 338.37904208 355.29075996 340 358 C340.11329038 360.40156561 340.16417175 362.77327884 340.16796875 365.17578125 C340.17129715 365.89734909 340.17462555 366.61891693 340.17805481 367.36235046 C340.18312803 368.8931718 340.18546301 370.42400425 340.18530273 371.95483398 C340.18748121 374.29234229 340.20560994 376.62937267 340.22460938 378.96679688 C340.22754486 380.45312338 340.22952862 381.93945214 340.23046875 383.42578125 C340.23765427 384.12383377 340.24483978 384.82188629 340.25224304 385.54109192 C340.23488064 389.24962675 339.90209537 391.80874286 338 395 C337.76020238 397.36222232 337.76020238 397.36222232 337.875 399.75 C337.89304687 400.54921875 337.91109375 401.3484375 337.9296875 402.171875 C337.95289063 402.77515625 337.97609375 403.3784375 338 404 C338.66 404.33 339.32 404.66 340 405 C339.67 405.99 339.34 406.98 339 408 C338.34 408 337.68 408 337 408 C336.98582031 408.80179688 336.97164062 409.60359375 336.95703125 410.4296875 C336.43349033 422.90977112 332.93693719 434.22241152 329 446 C328.53628504 447.60261929 328.07770313 449.20673538 327.625 450.8125 C326.39212201 454.95720038 324.84664508 458.80695948 323.03125 462.7265625 C321.96217037 465.08339714 321.00520364 467.46502377 320.0625 469.875 C318.58494291 473.59216135 317.04870965 477.27609842 315.4375 480.9375 C315.04433594 481.83339844 314.65117188 482.72929688 314.24609375 483.65234375 C313.03799 485.92842636 311.82104133 487.22325427 310 489 C308.99515117 491.33124929 307.99477753 493.66443537 307 496 C306.01 496.495 306.01 496.495 305 497 C304.53476937 498.89533342 304.53476937 498.89533342 304.375 501.0625 C304.25125 502.361875 304.1275 503.66125 304 505 C303.236875 505.226875 302.47375 505.45375 301.6875 505.6875 C297.0137786 507.9700151 295.73891982 512.31829278 294 517 C293.01 517 292.02 517 291 517 C288.17794066 519.93494171 287.13940709 523.14354522 286 527 C285.01 527 284.02 527 283 527 C282.67 528.65 282.34 530.3 282 532 C281.195625 532.12375 280.39125 532.2475 279.5625 532.375 C278.716875 532.58125 277.87125 532.7875 277 533 C276.67 533.66 276.34 534.32 276 535 C275.34 535 274.68 535 274 535 C273.7525 535.5775 273.505 536.155 273.25 536.75 C271.79897829 539.36183907 270.27201631 541.06210373 268 543 C267.319375 543.144375 266.63875 543.28875 265.9375 543.4375 C263.74122912 543.83599958 263.74122912 543.83599958 262.625 546.3125 C260.58855919 549.68045981 258.31719071 550.91862544 255 553 C253.92581135 553.90294118 252.86305008 554.81966212 251.8125 555.75 C249 558 249 558 246 558 C246 558.66 246 559.32 246 560 C244.3203125 561.2890625 244.3203125 561.2890625 242.125 562.625 C241.40570312 563.07101562 240.68640625 563.51703125 239.9453125 563.9765625 C238 565 238 565 236 565 C235.67 565.99 235.34 566.98 235 568 C231.9375 569.1875 231.9375 569.1875 229 570 C229 570.66 229 571.32 229 572 C227.35 571.67 225.7 571.34 224 571 C223.67 571.99 223.34 572.98 223 574 C221.14453125 575.09765625 221.14453125 575.09765625 218.8125 576.0625 C218.00554687 576.39894531 217.19859375 576.73539063 216.3671875 577.08203125 C213.60618526 578.15271694 210.83049069 579.12907979 208 580 C208 581.32 208 582.64 208 584 C206.2984375 583.87625 206.2984375 583.87625 204.5625 583.75 C200.11087321 583.71848406 197.05769869 585.17177395 193.12109375 587.109375 C190.34491198 588.27506458 187.97109672 588.30472787 185 588 C184.34 589.32 183.68 590.64 183 592 C181.9275 591.95875 180.855 591.9175 179.75 591.875 C176.19952819 591.99334906 174.96350304 592.36496384 172 594 C170.68 594 169.36 594 168 594 C168 594.99 168 595.98 168 597 C167.40316406 596.97679687 166.80632812 596.95359375 166.19140625 596.9296875 C160.104371 596.8030627 154.16574551 597.18883277 148.125 597.875 C147.03747437 597.99270752 147.03747437 597.99270752 145.92797852 598.11279297 C143.0116727 598.46479003 140.40264977 598.82010236 137.70768672 600.0241698 C134.29968483 601.25238839 131.47972276 601.24826578 127.85669994 601.24609566 C127.14519052 601.24840335 126.4336811 601.25071103 125.70061079 601.25308865 C123.31025692 601.25839336 120.92017107 601.24940072 118.52983093 601.24050903 C116.80134846 601.241381 115.07286625 601.24313183 113.34438545 601.24568737 C108.5897906 601.25016656 103.83528559 601.24214933 99.08070219 601.23213124 C93.95531615 601.2235073 88.82993532 601.22641616 83.70454407 601.22793579 C74.82283512 601.22898531 65.94115553 601.2227017 57.05945396 601.21146011 C44.2179527 601.19521717 31.37646566 601.18999834 18.53495524 601.18748413 C-2.29872604 601.18310513 -23.13239167 601.16979048 -43.96606445 601.15087891 C-64.20597251 601.1325254 -84.44587632 601.1183663 -104.68579102 601.10986328 C-106.55666682 601.10907511 -106.55666682 601.10907511 -108.46533809 601.10827102 C-114.72232667 601.10566097 -120.97931529 601.10313355 -127.23630393 601.10064721 C-179.15754677 601.07990834 -231.07877262 601.04467724 -283 601 C-283.33 599.68 -283.66 598.36 -284 597 C-282.68 596.34 -281.36 595.68 -280 595 C-280 594.01 -280 593.02 -280 592 C-280.66 592 -281.32 592 -282 592 C-282 591.01 -282 590.02 -282 589 C-280.02 589 -278.04 589 -276 589 C-275.79375 588.443125 -275.5875 587.88625 -275.375 587.3125 C-273.44999226 584.07498698 -270.96149098 582.31768859 -268 580 C-268.33 578.68 -268.66 577.36 -269 576 C-266.36 575.67 -263.72 575.34 -261 575 C-260.8453125 574.13375 -260.8453125 574.13375 -260.6875 573.25 C-259.89103535 570.64338842 -258.80934723 569.0264689 -257 567 C-256.34 567 -255.68 567 -255 567 C-254.62875 566.13375 -254.62875 566.13375 -254.25 565.25 C-252.81700012 562.67060021 -251.21575324 560.93878408 -249 559 C-248.34 559 -247.68 559 -247 559 C-246.896875 558.21625 -246.79375 557.4325 -246.6875 556.625 C-246 554 -246 554 -243 552 C-242.26393501 548.43230448 -242.26393501 548.43230448 -242 545 C-238.86650268 543.95550089 -238.01031744 544.06576355 -235 545 C-234.74089844 544.42378906 -234.48179687 543.84757813 -234.21484375 543.25390625 C-232.90400618 540.82190213 -231.40402166 538.99287579 -229.5625 536.9375 C-228.96566406 536.26589844 -228.36882813 535.59429688 -227.75390625 534.90234375 C-226.63921352 533.69331176 -225.49063185 532.51405108 -224.30078125 531.37890625 C-222.82550457 530.06383066 -222.82550457 530.06383066 -222.625 528 C-222 526 -222 526 -219.875 524.75 C-214.82340814 521.675118 -211.25456608 516.88184912 -208 512 C-207.01 512 -206.02 512 -205 512 C-204.62875 511.1646875 -204.62875 511.1646875 -204.25 510.3125 C-201.28157938 504.82092186 -196.76704035 500.66455737 -192.3125 496.375 C-190.76081059 494.82891973 -190.76081059 494.82891973 -189 492 C-187.90026269 491.03298961 -186.77266551 490.09711262 -185.625 489.1875 C-182.36173478 486.46361746 -180.29397396 483.59389253 -178 480 C-176.35570171 478.31126121 -174.68615782 476.64694485 -173 475 C-171.82877349 473.60799056 -170.66238516 472.21190078 -169.5 470.8125 C-166.83895155 467.70407004 -164.88440313 466.37096581 -161 465 C-160.8541748 464.39663818 -160.70834961 463.79327637 -160.55810547 463.17163086 C-159.87886534 460.52865581 -158.84152606 459.44550067 -156.9453125 457.50390625 C-156.33042969 456.86259766 -155.71554687 456.22128906 -155.08203125 455.56054688 C-154.11330078 454.57151367 -154.11330078 454.57151367 -153.125 453.5625 C-149.23662143 449.56807474 -145.70612502 445.92022731 -143 441 C-140.55187385 438.35860074 -138.10018372 436.07741469 -135.25 433.875 C-132.74947545 432.12568403 -132.74947545 432.12568403 -132 429 C-131.360625 428.87625 -130.72125 428.7525 -130.0625 428.625 C-129.381875 428.41875 -128.70125 428.2125 -128 428 C-127.71253906 427.2471875 -127.42507813 426.494375 -127.12890625 425.71875 C-125.83924145 422.61284447 -124.34178734 421.12959058 -121.875 418.875 C-119.70241659 416.95331507 -119.70241659 416.95331507 -118 415 C-118 414.01 -118 413.02 -118 412 C-117.1646875 411.938125 -117.1646875 411.938125 -116.3125 411.875 C-112.705605 410.51022892 -111.26961504 408.08919824 -109 405 C-109 404.34 -109 403.68 -109 403 C-108.01 403 -107.02 403 -106 403 C-105.34 401.68 -104.68 400.36 -104 399 C-103.34 399 -102.68 399 -102 399 C-102 398.34 -102 397.68 -102 397 C-101.34 397 -100.68 397 -100 397 C-99.87625 396.360625 -99.7525 395.72125 -99.625 395.0625 C-99.41875 394.381875 -99.2125 393.70125 -99 393 C-98.34 392.67 -97.68 392.34 -97 392 C-96.59270772 389.67843403 -96.25561323 387.3431213 -96 385 C-93.36 384.67 -90.72 384.34 -88 384 C-87.7525 383.2575 -87.505 382.515 -87.25 381.75 C-85.89534961 378.76976913 -84.4898459 377.10080748 -82 375 C-81.34 375 -80.68 375 -80 375 C-79.67 374.01 -79.34 373.02 -79 372 C-78.34 372 -77.68 372 -77 372 C-76.690625 371.05125 -76.38125 370.1025 -76.0625 369.125 C-74.38781163 364.19944598 -74.38781163 364.19944598 -71.8125 362.875 C-68.43760396 360.62506931 -66.68361267 358.06825005 -64.4296875 354.7421875 C-63 353 -63 353 -60 352 C-57.98207974 349.78354481 -57.98207974 349.78354481 -56 347.125 C-51.19742489 340.88529067 -51.19742489 340.88529067 -49 339 C-48.34 339 -47.68 339 -47 339 C-46.67 336.69 -46.34 334.38 -46 332 C-45.195625 331.773125 -44.39125 331.54625 -43.5625 331.3125 C-42.716875 330.879375 -41.87125 330.44625 -41 330 C-40.16507646 327.57540213 -40.16507646 327.57540213 -40 325 C-39.67 324.01 -39.34 323.02 -39 322 C-38.34 322 -37.68 322 -37 322 C-36.67 322.99 -36.34 323.98 -36 325 C-35.67 324.34 -35.34 323.68 -35 323 C-34.34 323 -33.68 323 -33 323 C-32.6596875 322.1646875 -32.6596875 322.1646875 -32.3125 321.3125 C-30.62449964 318.33840412 -28.53323483 316.27991135 -26 314 C-25.34 314 -24.68 314 -24 314 C-24.33 313.01 -24.66 312.02 -25 311 C-24.01 311 -23.02 311 -22 311 C-21.62875 310.13375 -21.62875 310.13375 -21.25 309.25 C-20 307 -20 307 -17.9375 305 C-15.8960494 302.89269615 -15.27887499 301.88170821 -15 299 C-15.33 298.01 -15.66 297.02 -16 296 C-15.34 296 -14.68 296 -14 296 C-14.33 294.02 -14.66 292.04 -15 290 C-16.65 289.67 -18.3 289.34 -20 289 C-20 289.66 -20 290.32 -20 291 C-22.97 291.33 -25.94 291.66 -29 292 C-29.33 290.68 -29.66 289.36 -30 288 C-36.98186629 286.0605927 -43.76086478 285.62092921 -50.96630859 285.34204102 C-56.90406071 285.09593929 -56.90406071 285.09593929 -58 284 C-60.67058851 283.85884839 -63.32432238 283.95752893 -66 284 C-66.33 284.66 -66.66 285.32 -67 286 C-67.86625 285.5359375 -67.86625 285.5359375 -68.75 285.0625 C-73.41388325 282.86011069 -78.06770817 282.73834614 -83.16015625 282.5 C-83.94643906 282.45939453 -84.73272186 282.41878906 -85.54283142 282.37695312 C-88.89911476 282.20368368 -92.25582797 282.03954199 -95.61254883 281.875 C-98.06610372 281.75340285 -100.51936812 281.62684784 -102.97265625 281.5 C-103.73208023 281.46455078 -104.49150421 281.42910156 -105.27394104 281.39257812 C-108.3960815 281.23048019 -111.01756436 280.99414521 -114 280 C-116.68990848 279.76853936 -119.36829605 279.58006875 -122.0625 279.421875 C-123.67977007 279.31241111 -125.29695583 279.20169563 -126.9140625 279.08984375 C-129.46148069 278.91617851 -132.00842488 278.74951908 -134.55761719 278.60400391 C-137.01956679 278.46088942 -139.47789042 278.28780173 -141.9375 278.109375 C-142.70006104 278.07269714 -143.46262207 278.03601929 -144.24829102 277.99822998 C-147.91172383 277.70726879 -149.5998993 277.45688675 -152.06762695 274.63891602 C-153 272 -153 272 -151.98046875 268.66796875 C-151.09294922 266.94513672 -151.09294922 266.94513672 -150.1875 265.1875 C-149.60355469 264.02605469 -149.01960937 262.86460937 -148.41796875 261.66796875 C-147.71607422 260.34732422 -147.71607422 260.34732422 -147 259 C-147.66 259 -148.32 259 -149 259 C-149 257.02 -149 255.04 -149 253 C-148.01 253 -147.02 253 -146 253 C-146.33 254.32 -146.66 255.64 -147 257 C-146.54625 256.505 -146.0925 256.01 -145.625 255.5 C-144 254 -144 254 -142 254 C-141.9175 253.319375 -141.835 252.63875 -141.75 251.9375 C-140.77667472 248.1253093 -139.04192545 245.35929671 -137 242 C-136.34 242 -135.68 242 -135 242 C-133.98459888 237.89776415 -133.98459888 237.89776415 -135 234 C-134.67 233.01 -134.34 232.02 -134 231 C-132.68 231 -131.36 231 -130 231 C-129.72800781 230.29488281 -129.45601562 229.58976563 -129.17578125 228.86328125 C-125.90010008 220.88629023 -121.91049001 213.09293001 -117 206 C-116.34 206 -115.68 206 -115 206 C-114.9175 205.319375 -114.835 204.63875 -114.75 203.9375 C-113.99354099 200.9747022 -112.81235141 198.70808568 -111.24609375 196.09765625 C-109.72447651 193.53618773 -108.29992689 190.92893054 -106.875 188.3125 C-106.37742187 187.40113281 -105.87984375 186.48976563 -105.3671875 185.55078125 C-104.20579738 183.38395912 -103.08485555 181.20587296 -102 179 C-101.34 179 -100.68 179 -100 179 C-100 177.02 -100 175.04 -100 173 C-99.01 173 -98.02 173 -97 173 C-96.855625 172.401875 -96.71125 171.80375 -96.5625 171.1875 C-96.1127561 169.43849596 -95.57107659 167.71322977 -95 166 C-95.33 165.01 -95.66 164.02 -96 163 C-95.34 162.34 -94.68 161.68 -94 161 C-93.34 161 -92.68 161 -92 161 C-90.21694476 158.36107824 -89.00940379 156.02821137 -88 153 C-86.562962 150.844443 -85.09826291 148.76867404 -83.5625 146.6875 C-80.36410071 142.20217082 -78 138.64098038 -78 133 C-77.01 132.67 -76.02 132.34 -75 132 C-74.67 131.01 -74.34 130.02 -74 129 C-73.34 129 -72.68 129 -72 129 C-71.896875 128.29875 -71.79375 127.5975 -71.6875 126.875 C-70.90640997 123.60862353 -69.57941257 120.9528148 -68 118 C-67.34 118 -66.68 118 -66 118 C-65.855625 117.38125 -65.71125 116.7625 -65.5625 116.125 C-65 114 -65 114 -64 112 C-64.99 111.67 -65.98 111.34 -67 111 C-65.8553125 110.13375 -65.8553125 110.13375 -64.6875 109.25 C-60.24519056 105.53085722 -57.6421862 101.10215266 -55 96 C-55 94.68 -55 93.36 -55 92 C-54.34 92 -53.68 92 -53 92 C-50.06580049 88.14886315 -48.4866453 84.56612484 -47 80 C-46.34 79.67 -45.68 79.34 -45 79 C-42.79476701 74.68309674 -42.79476701 74.68309674 -42 70 C-41.01585862 68.98438898 -40.01305469 67.98677261 -39 67 C-36.45028314 63.35421584 -34.27208197 59.55424105 -32.3125 55.5625 C-31 53 -31 53 -29 52 C-27.80510684 49.63964455 -26.69477542 47.29121689 -25.625 44.875 C-23.8397246 40.87787897 -22.03403788 36.97252471 -19.8203125 33.19140625 C-18.17315844 30.30358465 -17.39547117 28.26263714 -17 25 C-16.34 25 -15.68 25 -15 25 C-13.71050833 23.20473889 -13.71050833 23.20473889 -12.5 21 C-11.21875 18.75 -11.21875 18.75 -10 17 C-9.34 17 -8.68 17 -8 17 C-7.83564453 16.07767578 -7.83564453 16.07767578 -7.66796875 15.13671875 C-7.50941406 14.32847656 -7.35085938 13.52023437 -7.1875 12.6875 C-6.96126953 11.48673828 -6.96126953 11.48673828 -6.73046875 10.26171875 C-5.91149414 7.72596313 -4.94212801 6.76648335 -3 5 C-2.319375 3.6696875 -2.319375 3.6696875 -1.625 2.3125 C-1.08875 1.549375 -0.5525 0.78625 0 0 Z " fill="#FFFFFF" transform="translate(869,361)"/>
<path d="M0 0 C0.99 0 1.98 0 3 0 C3 1.98 3 3.96 3 6 C1.68 5.67 0.36 5.34 -1 5 C-0.67 3.35 -0.34 1.7 0 0 Z " fill="#FFFFFF" transform="translate(242,508)"/>
<path d="M0 0 C1.32 0.33 2.64 0.66 4 1 C3.67 1.99 3.34 2.98 3 4 C2.01 3.67 1.02 3.34 0 3 C0 2.01 0 1.02 0 0 Z " fill="#FFFFFF" transform="translate(708,812)"/>
<path d="M0 0 C0.99 0 1.98 0 3 0 C3 0.99 3 1.98 3 3 C1.68 3 0.36 3 -1 3 C-0.67 2.01 -0.34 1.02 0 0 Z " fill="#FFFFFF" transform="translate(722,799)"/>
<path d="M0 0 C0.99 0 1.98 0 3 0 C3 0.99 3 1.98 3 3 C2.01 3 1.02 3 0 3 C0 2.01 0 1.02 0 0 Z " fill="#FFFFFF" transform="translate(1077,522)"/>
<path d="M0 0 C0.66 1.32 1.32 2.64 2 4 C1.01 4 0.02 4 -1 4 C-0.67 2.68 -0.34 1.36 0 0 Z " fill="#FFFFFF" transform="translate(854,375)"/>
<path d="M0 0 C0.66 0 1.32 0 2 0 C1.67 0.99 1.34 1.98 1 3 C0.34 3 -0.32 3 -1 3 C-0.67 2.01 -0.34 1.02 0 0 Z " fill="#FFFFFF" transform="translate(669,857)"/>
<path d="M0 0 C0.99 0.33 1.98 0.66 3 1 C3 1.66 3 2.32 3 3 C2.01 2.67 1.02 2.34 0 2 C0 1.34 0 0.68 0 0 Z " fill="#FFFFFF" transform="translate(671,853)"/>
<path d="M0 0 C0.66 0.33 1.32 0.66 2 1 C2 1.66 2 2.32 2 3 C1.01 3 0.02 3 -1 3 C-0.67 2.01 -0.34 1.02 0 0 Z " fill="#FFFFFF" transform="translate(1207,697)"/>
<path d="M0 0 C0.66 0.33 1.32 0.66 2 1 C2 1.66 2 2.32 2 3 C1.01 3 0.02 3 -1 3 C-0.67 2.01 -0.34 1.02 0 0 Z " fill="#FFFFFF" transform="translate(841,670)"/>
<path d="M0 0 C0.99 0.33 1.98 0.66 3 1 C3 1.66 3 2.32 3 3 C2.01 2.67 1.02 2.34 0 2 C0 1.34 0 0.68 0 0 Z " fill="#FFFFFF" transform="translate(1169,602)"/>
<path d="M0 0 C0.66 0 1.32 0 2 0 C2 0.99 2 1.98 2 3 C1.01 2.67 0.02 2.34 -1 2 C-0.67 1.34 -0.34 0.68 0 0 Z " fill="#FFFFFF" transform="translate(1158,587)"/>
<path d="M0 0 C0.99 0.99 1.98 1.98 3 3 C2.01 3 1.02 3 0 3 C0 2.01 0 1.02 0 0 Z " fill="#FFFFFF" transform="translate(1140,903)"/>
<path d="M0 0 C0.66 0 1.32 0 2 0 C2 0.99 2 1.98 2 3 C1.34 3 0.68 3 0 3 C0 2.01 0 1.02 0 0 Z " fill="#FFFFFF" transform="translate(84,774)"/>
<path d="M0 0 C0.99 0.33 1.98 0.66 3 1 C2.34 1.66 1.68 2.32 1 3 C0.67 2.01 0.34 1.02 0 0 Z " fill="#FFFFFF" transform="translate(773,646)"/>
<path d="M0 0 C1.32 0.33 2.64 0.66 4 1 C3.01 1.33 2.02 1.66 1 2 C0.67 1.34 0.34 0.68 0 0 Z " fill="#FFFFFF" transform="translate(1102,536)"/>
<path d="M0 0 C0.99 0.33 1.98 0.66 3 1 C2.01 1.66 1.02 2.32 0 3 C0 2.01 0 1.02 0 0 Z " fill="#FFFFFF" transform="translate(194,533)"/>
<path d="M0 0 C0.66 0.66 1.32 1.32 2 2 C1.01 2.33 0.02 2.66 -1 3 C-0.67 2.01 -0.34 1.02 0 0 Z " fill="#FFFFFF" transform="translate(388,364)"/>
<path d="M0 0 C0.99 0.33 1.98 0.66 3 1 C2.01 1.66 1.02 2.32 0 3 C0 2.01 0 1.02 0 0 Z " fill="#FFFFFF" transform="translate(782,283)"/>
<path d="M0 0 C0.66 0 1.32 0 2 0 C2 0.66 2 1.32 2 2 C1.01 1.67 0.02 1.34 -1 1 C-0.67 0.67 -0.34 0.34 0 0 Z " fill="#FFFFFF" transform="translate(1048,956)"/>
<path d="M0 0 C0.99 0.495 0.99 0.495 2 1 C2 1.66 2 2.32 2 3 C1.34 3 0.68 3 0 3 C0 2.01 0 1.02 0 0 Z " fill="#FFFFFF" transform="translate(1153,890)"/>
<path d="M0 0 C0.99 0.495 0.99 0.495 2 1 C2 1.66 2 2.32 2 3 C1.34 3 0.68 3 0 3 C0 2.01 0 1.02 0 0 Z " fill="#FFFFFF" transform="translate(121,870)"/>
<path d="M0 0 C0.99 0.33 1.98 0.66 3 1 C2.01 1.33 1.02 1.66 0 2 C0 1.34 0 0.68 0 0 Z " fill="#FFFFFF" transform="translate(747,773)"/>
<path d="M0 0 C0.33 0.99 0.66 1.98 1 3 C0.34 3 -0.32 3 -1 3 C-0.67 2.01 -0.34 1.02 0 0 Z " fill="#FFFFFF" transform="translate(821,650)"/>
<path d="M0 0 C0.33 0.99 0.66 1.98 1 3 C0.34 3 -0.32 3 -1 3 C-0.67 2.01 -0.34 1.02 0 0 Z " fill="#FFFFFF" transform="translate(613,577)"/>
<path d="M0 0 C0.66 0 1.32 0 2 0 C2 0.66 2 1.32 2 2 C1.01 1.67 0.02 1.34 -1 1 C-0.67 0.67 -0.34 0.34 0 0 Z " fill="#FFFFFF" transform="translate(751,564)"/>
<path d="M0 0 C0.99 0.33 1.98 0.66 3 1 C2.01 1.33 1.02 1.66 0 2 C0 1.34 0 0.68 0 0 Z " fill="#FFFFFF" transform="translate(773,511)"/>
<path d="M0 0 C0.66 0 1.32 0 2 0 C1.67 0.99 1.34 1.98 1 3 C0.67 2.01 0.34 1.02 0 0 Z " fill="#FFFFFF" transform="translate(778,508)"/>
<path d="M0 0 C0.99 0.495 0.99 0.495 2 1 C2 1.66 2 2.32 2 3 C1.34 3 0.68 3 0 3 C0 2.01 0 1.02 0 0 Z " fill="#FFFFFF" transform="translate(714,477)"/>
<path d="M0 0 C0.33 0.99 0.66 1.98 1 3 C0.34 3 -0.32 3 -1 3 C-0.67 2.01 -0.34 1.02 0 0 Z " fill="#FFFFFF" transform="translate(443,314)"/>
<path d="M0 0 C0.66 0 1.32 0 2 0 C2 0.66 2 1.32 2 2 C1.34 2 0.68 2 0 2 C0 1.34 0 0.68 0 0 Z " fill="#FFFFFF" transform="translate(1052,954)"/>
<path d="M0 0 C0.66 0 1.32 0 2 0 C2 0.66 2 1.32 2 2 C1.34 2 0.68 2 0 2 C0 1.34 0 0.68 0 0 Z " fill="#FFFFFF" transform="translate(567,863)"/>
<path d="M0 0 C0.66 0 1.32 0 2 0 C2 0.66 2 1.32 2 2 C1.34 2 0.68 2 0 2 C0 1.34 0 0.68 0 0 Z " fill="#FFFFFF" transform="translate(667,861)"/>
<path d="M0 0 C0.66 0.66 1.32 1.32 2 2 C1.01 2.495 1.01 2.495 0 3 C0 2.01 0 1.02 0 0 Z " fill="#FFFFFF" transform="translate(1180,850)"/>
<path d="M0 0 C0.66 0.66 1.32 1.32 2 2 C1.01 2.495 1.01 2.495 0 3 C0 2.01 0 1.02 0 0 Z " fill="#FFFFFF" transform="translate(121,604)"/>
<path d="M0 0 C0.66 0 1.32 0 2 0 C2 0.66 2 1.32 2 2 C1.34 2 0.68 2 0 2 C0 1.34 0 0.68 0 0 Z " fill="#FFFFFF" transform="translate(1145,573)"/>
<path d="M0 0 C0.66 0 1.32 0 2 0 C2 0.66 2 1.32 2 2 C1.34 2 0.68 2 0 2 C0 1.34 0 0.68 0 0 Z " fill="#FFFFFF" transform="translate(814,441)"/>
<path d="M0 0 C0.66 0 1.32 0 2 0 C2 0.66 2 1.32 2 2 C1.34 2 0.68 2 0 2 C0 1.34 0 0.68 0 0 Z " fill="#FFFFFF" transform="translate(531,267)"/>
<path d="" fill="#FFFFFF" transform="translate(0,0)"/>
<path d="M0 0 C2 1 2 1 2 1 Z " fill="#FFFFFF" transform="translate(244,953)"/>
<path d="" fill="#FFFFFF" transform="translate(0,0)"/>
<path d="" fill="#FFFFFF" transform="translate(0,0)"/>
<path d="" fill="#FFFFFF" transform="translate(0,0)"/>
<path d="" fill="#FFFFFF" transform="translate(0,0)"/>
<path d="" fill="#FFFFFF" transform="translate(0,0)"/>
<path d="" fill="#FFFFFF" transform="translate(0,0)"/>
<path d="" fill="#FFFFFF" transform="translate(0,0)"/>
<path d="" fill="#FFFFFF" transform="translate(0,0)"/>
<path d="M0 0 C2 1 2 1 2 1 Z " fill="#FFFFFF" transform="translate(730,465)"/>
<path d="" fill="#FFFFFF" transform="translate(0,0)"/>
<path d="M0 0 C2 1 2 1 2 1 Z " fill="#FFFFFF" transform="translate(900,400)"/>
<path d="" fill="#FFFFFF" transform="translate(0,0)"/>
<path d="" fill="#FFFFFF" transform="translate(0,0)"/>
<path d="" fill="#FFFFFF" transform="translate(0,0)"/>
<path d="" fill="#FFFFFF" transform="translate(0,0)"/>
<path d="" fill="#FFFFFF" transform="translate(0,0)"/>
<path d="" fill="#FFFFFF" transform="translate(0,0)"/>
<path d="" fill="#FFFFFF" transform="translate(0,0)"/>
<path d="" fill="#FFFFFF" transform="translate(0,0)"/>
<path d="" fill="#FFFFFF" transform="translate(0,0)"/>
<path d="" fill="#FFFFFF" transform="translate(0,0)"/>
<path d="" fill="#FFFFFF" transform="translate(0,0)"/>
<path d="" fill="#FFFFFF" transform="translate(0,0)"/>
<path d="" fill="#FFFFFF" transform="translate(0,0)"/>
<path d="" fill="#FFFFFF" transform="translate(0,0)"/>
<path d="" fill="#FFFFFF" transform="translate(0,0)"/>
<path d="" fill="#FFFFFF" transform="translate(0,0)"/>
<path d="" fill="#FFFFFF" transform="translate(0,0)"/>
<path d="" fill="#FFFFFF" transform="translate(0,0)"/>
<path d="" fill="#FFFFFF" transform="translate(0,0)"/>
<path d="" fill="#FFFFFF" transform="translate(0,0)"/>
<path d="" fill="#FFFFFF" transform="translate(0,0)"/>
<path d="" fill="#FFFFFF" transform="translate(0,0)"/>
<path d="" fill="#FFFFFF" transform="translate(0,0)"/>
<path d="" fill="#FFFFFF" transform="translate(0,0)"/>
<path d="" fill="#FFFFFF" transform="translate(0,0)"/>
<path d="" fill="#FFFFFF" transform="translate(0,0)"/>
<path d="" fill="#FFFFFF" transform="translate(0,0)"/>
<path d="" fill="#FFFFFF" transform="translate(0,0)"/>
<path d="" fill="#FFFFFF" transform="translate(0,0)"/>
<path d="" fill="#FFFFFF" transform="translate(0,0)"/>
<path d="" fill="#FFFFFF" transform="translate(0,0)"/>
<path d="" fill="#FFFFFF" transform="translate(0,0)"/>
<path d="" fill="#FFFFFF" transform="translate(0,0)"/>
<path d="" fill="#FFFFFF" transform="translate(0,0)"/>
</svg>
