<?xml version="1.0" standalone="no"?>
<!DOCTYPE svg PUBLIC "-//W3C//DTD SVG 20010904//EN"
 "http://www.w3.org/TR/2001/REC-SVG-20010904/DTD/svg10.dtd">
<svg version="1.0" xmlns="http://www.w3.org/2000/svg"
 width="12500.000000pt" height="3125.000000pt" viewBox="0 0 12500.000000 3125.000000"
 preserveAspectRatio="xMidYMid meet">

<g transform="translate(0.000000,3125.000000) scale(0.100000,-0.100000)"
fill="#000000" stroke="none">
<path d="M19265 27620 c-82 -5 -168 -13 -190 -19 -22 -6 -128 -18 -235 -26
-107 -8 -220 -21 -250 -29 -30 -9 -111 -20 -180 -25 -69 -6 -155 -19 -192 -30
-36 -10 -102 -22 -145 -26 -43 -4 -112 -15 -153 -25 -41 -11 -106 -24 -145
-30 -38 -5 -97 -17 -130 -25 -33 -8 -136 -33 -230 -54 -152 -36 -406 -115
-460 -144 -11 -6 -51 -18 -90 -28 -38 -9 -113 -34 -165 -54 -52 -21 -162 -61
-245 -91 -333 -118 -380 -135 -434 -163 -31 -16 -217 -109 -414 -207 -455
-225 -645 -333 -982 -557 -22 -15 -71 -48 -110 -73 -141 -94 -262 -177 -350
-240 -49 -35 -117 -83 -150 -106 -33 -22 -87 -65 -120 -93 -33 -29 -104 -87
-159 -129 -114 -89 -299 -253 -466 -411 -64 -60 -157 -147 -207 -192 -50 -45
-125 -124 -166 -175 -41 -51 -149 -172 -239 -268 -191 -206 -320 -357 -475
-559 -100 -130 -299 -418 -363 -526 -13 -22 -42 -69 -65 -105 -105 -166 -307
-538 -382 -705 -20 -44 -56 -123 -81 -175 -24 -51 -53 -117 -62 -145 -10 -27
-49 -117 -85 -200 -37 -82 -78 -179 -90 -215 -13 -36 -44 -117 -70 -180 -25
-63 -52 -144 -60 -180 -8 -36 -19 -79 -26 -95 -6 -17 -20 -61 -29 -100 -10
-38 -27 -95 -38 -125 -22 -60 -45 -147 -68 -255 -8 -38 -23 -99 -34 -135 -11
-36 -22 -90 -26 -120 -3 -30 -16 -95 -29 -145 -13 -49 -26 -121 -29 -160 -4
-38 -13 -110 -21 -160 -8 -49 -17 -116 -20 -147 -5 -42 -13 -63 -32 -82 l-26
-26 -452 0 c-446 0 -610 -9 -775 -40 -30 -6 -104 -13 -165 -16 -60 -4 -144
-14 -185 -25 -42 -10 -115 -23 -163 -28 -47 -6 -107 -17 -133 -26 -25 -8 -80
-20 -122 -26 -42 -6 -85 -15 -95 -20 -10 -6 -66 -21 -125 -34 -148 -33 -260
-64 -293 -81 -15 -7 -61 -19 -101 -24 -105 -15 -507 -152 -685 -233 -54 -25
-206 -94 -338 -155 -132 -60 -296 -142 -365 -182 -69 -40 -171 -99 -228 -131
-56 -32 -167 -100 -245 -152 -166 -110 -647 -475 -727 -552 -30 -29 -130 -118
-222 -198 -193 -168 -567 -547 -683 -692 -44 -55 -103 -124 -131 -155 -141
-153 -470 -619 -671 -950 -128 -211 -170 -291 -351 -680 -93 -200 -315 -809
-343 -940 -6 -30 -17 -66 -24 -80 -7 -14 -21 -63 -30 -110 -9 -47 -22 -93 -27
-104 -5 -10 -16 -58 -24 -106 -8 -49 -21 -108 -30 -132 -8 -23 -19 -92 -25
-153 -5 -60 -18 -157 -29 -215 -10 -58 -21 -154 -25 -213 -3 -60 -13 -163 -22
-230 -22 -174 -22 -815 1 -972 9 -60 21 -188 26 -285 5 -96 17 -211 25 -255 9
-44 20 -136 25 -205 5 -69 16 -141 24 -162 9 -20 22 -79 30 -130 8 -51 21
-111 29 -133 8 -22 18 -60 21 -85 7 -46 56 -213 83 -285 8 -22 25 -78 38 -125
12 -47 33 -121 45 -165 12 -44 67 -192 122 -330 56 -137 111 -277 124 -310 12
-33 41 -94 64 -135 23 -41 62 -120 87 -175 74 -165 254 -493 316 -575 23 -30
78 -109 122 -175 138 -204 224 -320 335 -450 42 -49 112 -135 155 -190 103
-130 530 -555 629 -627 23 -16 104 -86 181 -156 77 -70 168 -148 203 -172 62
-45 124 -92 276 -211 44 -34 150 -101 235 -150 86 -48 188 -107 226 -131 39
-25 119 -71 179 -103 60 -32 124 -68 142 -80 18 -12 77 -42 131 -65 54 -23
127 -56 163 -73 36 -16 92 -40 125 -52 33 -13 112 -45 175 -72 177 -76 225
-94 287 -108 32 -7 103 -29 158 -49 55 -19 152 -50 215 -67 63 -17 160 -44
215 -59 142 -39 230 -60 310 -76 39 -8 87 -21 108 -29 21 -8 84 -22 140 -30
56 -9 127 -22 157 -30 30 -7 102 -18 160 -24 58 -6 128 -18 155 -26 33 -10
124 -19 265 -26 118 -5 240 -14 270 -20 81 -16 6290 -25 6366 -9 85 18 118 54
206 227 42 81 108 204 147 273 38 69 91 168 116 220 25 52 59 115 74 140 16
25 88 151 159 280 71 129 146 264 167 300 72 125 95 169 123 238 16 38 43 91
61 117 18 26 48 80 68 119 19 39 61 114 93 166 31 52 80 138 108 190 28 52 73
138 101 190 28 52 90 172 137 265 47 94 94 179 103 190 25 29 142 234 193 340
39 79 90 169 164 285 12 19 52 93 88 163 36 70 77 145 90 165 13 20 76 134
141 252 65 118 145 265 178 325 33 61 68 121 77 135 10 14 43 75 75 135 32 61
61 115 65 120 4 6 25 44 45 85 21 41 64 118 95 170 50 84 113 197 232 420 68
125 193 346 214 375 12 17 55 91 96 165 41 74 112 200 158 280 46 80 98 174
117 210 18 36 46 82 61 103 15 20 63 106 106 191 67 130 80 163 84 213 4 56 2
61 -23 81 -26 20 -39 22 -179 22 -83 0 -198 5 -256 10 -58 6 -267 15 -465 20
-221 6 -433 17 -550 30 -104 11 -260 20 -346 20 -86 0 -245 9 -355 20 -109 11
-332 25 -494 30 -169 5 -335 16 -390 25 -52 8 -203 19 -336 25 -135 5 -297 18
-370 29 -81 12 -214 21 -357 25 -126 4 -299 13 -385 22 -86 8 -218 19 -292 24
-86 6 -155 17 -190 30 -30 10 -73 24 -95 29 -87 23 -159 125 -159 226 1 112
26 149 261 378 253 246 423 410 523 501 102 94 423 400 600 572 80 77 182 175
227 217 46 42 97 93 115 113 18 20 69 69 113 107 84 73 327 303 474 447 259
256 868 845 1006 975 224 209 1081 1040 1345 1305 30 30 116 111 190 180 117
108 562 540 1228 1192 100 99 244 236 320 305 75 69 225 212 332 318 791 779
995 977 1149 1116 116 104 318 300 921 888 223 218 538 524 700 681 162 156
340 330 395 385 122 124 631 616 853 826 90 85 305 291 479 459 173 168 349
337 391 375 270 250 331 323 316 389 -8 37 -87 122 -174 188 -36 27 -103 84
-150 126 -47 43 -116 100 -155 127 -38 27 -98 75 -132 107 -35 32 -82 71 -105
86 -24 15 -86 59 -138 98 -52 38 -124 90 -160 114 -36 24 -90 60 -120 81 -488
328 -795 511 -1030 614 -56 24 -131 62 -168 84 -37 22 -92 51 -122 64 -30 14
-136 61 -235 105 -99 45 -218 95 -265 112 -47 17 -114 43 -150 56 -36 14 -96
36 -135 49 -38 13 -115 40 -170 60 -55 19 -179 61 -275 91 -96 30 -206 66
-245 80 -72 26 -169 51 -310 79 -44 9 -125 27 -180 40 -193 45 -291 65 -380
76 -49 6 -115 17 -145 24 -30 8 -104 19 -164 25 -60 5 -153 18 -205 29 -53 11
-163 24 -246 30 -82 7 -220 18 -305 27 -182 17 -1124 27 -1365 14z"/>
<path d="M27165 24136 c-37 -16 -71 -66 -174 -251 -43 -77 -113 -201 -156
-275 -43 -74 -95 -166 -115 -205 -78 -143 -194 -352 -231 -417 -22 -37 -69
-120 -105 -184 -36 -64 -82 -142 -103 -173 -21 -31 -58 -94 -81 -141 -24 -47
-60 -114 -80 -150 -21 -36 -49 -85 -62 -110 -14 -25 -83 -148 -153 -275 -70
-126 -150 -270 -177 -320 -27 -49 -67 -117 -88 -150 -21 -33 -60 -100 -85
-150 -26 -49 -75 -139 -110 -200 -34 -60 -99 -180 -145 -265 -46 -85 -102
-184 -125 -220 -23 -36 -61 -101 -85 -145 -55 -103 -216 -388 -248 -440 -61
-101 -159 -269 -209 -360 -31 -55 -76 -134 -101 -175 -25 -41 -70 -122 -100
-180 -30 -58 -60 -112 -66 -120 -7 -8 -37 -60 -68 -115 -31 -55 -67 -120 -81
-145 -14 -25 -51 -94 -82 -154 -57 -109 -118 -215 -180 -311 -18 -27 -60 -105
-93 -173 -34 -68 -70 -135 -80 -150 -11 -15 -52 -88 -92 -162 -40 -74 -99
-178 -131 -231 -32 -53 -103 -177 -157 -275 -54 -99 -109 -197 -122 -219 -12
-22 -35 -62 -50 -90 -15 -27 -60 -108 -100 -180 -40 -71 -79 -145 -87 -164 -8
-18 -33 -63 -55 -100 -23 -36 -51 -84 -63 -106 -12 -22 -48 -85 -80 -140 -32
-55 -69 -124 -82 -153 -13 -29 -55 -110 -95 -180 -188 -334 -195 -382 -61
-397 32 -4 96 -13 143 -21 47 -8 164 -19 261 -24 97 -5 218 -16 270 -24 52 -9
166 -20 254 -26 88 -6 203 -20 255 -31 70 -15 159 -22 340 -29 138 -5 284 -16
335 -25 50 -9 196 -20 325 -25 129 -5 278 -16 330 -25 52 -8 192 -20 310 -25
118 -6 276 -17 350 -25 74 -9 203 -20 285 -25 83 -5 184 -16 225 -24 41 -8
119 -20 172 -26 142 -17 259 -68 325 -143 43 -49 73 -135 73 -207 0 -141 -80
-256 -435 -620 -77 -80 -170 -179 -205 -220 -82 -95 -362 -400 -502 -546 -58
-62 -134 -147 -168 -190 -35 -44 -155 -179 -269 -302 -257 -279 -331 -361
-480 -537 -66 -77 -161 -180 -211 -230 -51 -49 -105 -108 -122 -130 -16 -22
-89 -101 -162 -175 -73 -74 -170 -180 -216 -235 -46 -55 -158 -180 -249 -278
-91 -98 -192 -210 -224 -250 -62 -76 -160 -182 -470 -510 -103 -109 -204 -221
-226 -250 -21 -29 -121 -142 -222 -252 -101 -110 -215 -236 -254 -280 -38 -44
-149 -163 -246 -265 -97 -102 -205 -219 -240 -260 -35 -41 -68 -79 -74 -85 -6
-5 -67 -71 -135 -145 -68 -74 -172 -184 -230 -245 -59 -60 -145 -157 -192
-215 -47 -58 -154 -177 -238 -265 -84 -88 -214 -230 -289 -315 -139 -158 -222
-248 -392 -425 -52 -55 -157 -173 -233 -262 -75 -89 -148 -170 -161 -180 -30
-22 -307 -327 -570 -628 -43 -49 -102 -115 -129 -145 -28 -31 -94 -105 -146
-165 -52 -61 -147 -164 -211 -230 -63 -66 -161 -174 -216 -240 -55 -66 -142
-165 -193 -220 -51 -55 -99 -110 -106 -121 -19 -28 -3 -71 28 -79 13 -3 2689
-4 5948 -2 4266 3 5947 8 6005 16 44 6 249 15 455 21 305 7 392 13 465 29 50
10 135 22 189 26 54 4 123 15 153 26 30 10 89 21 131 25 42 3 113 14 157 24
44 10 114 23 155 29 157 22 487 108 735 192 66 23 147 48 180 56 92 24 220 73
450 174 116 50 239 104 275 119 169 71 538 266 692 366 59 38 153 98 209 134
55 36 129 87 163 114 33 28 120 92 191 144 72 52 144 106 160 119 140 112 765
735 841 838 32 44 95 120 139 169 143 158 232 277 363 485 26 40 70 105 98
145 68 95 335 585 417 766 36 80 95 222 132 315 37 94 78 198 91 232 13 34 24
69 24 78 0 8 7 32 16 53 30 70 111 344 143 487 10 44 25 97 34 117 15 35 69
298 83 403 3 28 13 78 20 112 8 34 19 108 24 165 5 56 17 155 25 218 8 63 20
178 25 255 6 77 16 199 22 270 14 179 14 662 -1 750 -6 39 -16 120 -21 180
-18 210 -83 621 -120 755 -10 36 -23 98 -29 137 -6 40 -19 94 -30 120 -10 27
-21 66 -25 88 -4 22 -18 76 -31 120 -13 44 -38 130 -55 190 -29 100 -71 227
-135 405 -12 36 -45 117 -73 180 -27 63 -55 133 -62 155 -31 96 -260 539 -409
790 -78 131 -227 363 -365 570 -33 50 -80 115 -106 145 -26 30 -66 82 -91 115
-93 126 -247 315 -353 430 -105 115 -172 186 -351 373 -85 90 -234 221 -300
265 -36 25 -199 157 -418 340 -45 38 -136 104 -202 147 -66 43 -141 94 -167
112 -232 162 -381 250 -661 387 -222 109 -793 371 -808 371 -5 0 -116 36 -247
79 -130 43 -264 84 -297 91 -33 7 -127 32 -209 56 -83 24 -160 44 -174 44 -13
0 -71 11 -130 24 -59 13 -144 27 -190 30 -46 4 -113 14 -150 22 -37 9 -121 22
-187 29 -66 8 -181 22 -255 32 -117 16 -212 18 -715 18 -506 -1 -595 -3 -695
-19 -158 -24 -354 -46 -421 -46 -52 0 -59 3 -87 34 -25 29 -31 46 -37 103 -3
37 -17 125 -31 196 -13 70 -24 142 -25 160 0 17 -9 64 -20 102 -10 39 -26 108
-35 155 -19 104 -101 402 -144 525 -18 50 -40 122 -50 160 -10 39 -27 90 -39
115 -11 25 -21 51 -21 58 0 8 -11 41 -24 75 -13 34 -36 96 -51 137 -15 41 -42
111 -60 155 -19 44 -63 157 -100 250 -92 236 -498 1049 -609 1220 -46 72 -141
218 -211 325 -70 107 -155 238 -189 291 -100 158 -227 301 -264 299 -4 -1 -21
-7 -37 -14z"/>
<path d="M79245 20874 c-11 -3 -72 -17 -135 -31 -63 -14 -128 -33 -144 -40
-16 -8 -52 -22 -80 -30 -28 -8 -58 -21 -66 -28 -8 -8 -35 -23 -60 -35 -70 -32
-110 -59 -198 -134 -87 -73 -254 -264 -287 -327 -11 -22 -38 -69 -59 -106 -22
-38 -47 -95 -57 -128 -9 -33 -24 -79 -33 -101 -28 -75 -40 -290 -26 -459 7
-85 19 -165 27 -185 8 -19 23 -65 33 -102 10 -37 27 -79 38 -95 10 -15 22 -38
26 -50 13 -42 93 -169 131 -208 11 -12 42 -47 69 -78 27 -32 77 -80 110 -108
34 -27 75 -61 91 -75 40 -33 137 -94 150 -94 6 0 26 -11 44 -24 19 -14 48 -28
65 -32 17 -3 47 -14 66 -24 19 -9 91 -30 160 -46 212 -49 440 -38 645 31 118
39 158 56 182 75 14 11 31 20 37 20 42 0 299 204 361 287 16 21 50 63 76 93
26 30 54 71 63 90 9 19 36 71 60 115 23 44 46 98 50 120 4 22 18 67 31 101 21
52 25 84 31 230 7 192 -6 377 -30 426 -9 17 -23 61 -32 97 -8 36 -21 72 -28
81 -8 8 -23 33 -33 55 -57 115 -122 205 -238 330 -85 91 -244 212 -304 230
-12 4 -38 17 -57 30 -19 13 -49 27 -67 30 -18 4 -45 14 -62 23 -68 35 -266 73
-400 77 -71 2 -139 2 -150 -1z"/>
<path d="M94795 20741 c-330 -29 -436 -41 -495 -56 -30 -7 -102 -21 -160 -29
-58 -9 -121 -23 -140 -31 -19 -8 -75 -24 -125 -34 -115 -25 -225 -57 -295 -87
-30 -13 -75 -28 -99 -35 -24 -6 -54 -17 -65 -24 -12 -7 -41 -19 -66 -25 -25
-7 -121 -49 -215 -95 -93 -46 -186 -91 -205 -100 -52 -25 -110 -57 -160 -89
-25 -16 -63 -41 -85 -54 -22 -14 -59 -38 -82 -54 -23 -15 -44 -28 -47 -28 -14
0 -112 -72 -247 -180 -37 -30 -89 -71 -115 -90 -57 -43 -195 -172 -328 -307
-94 -94 -319 -353 -358 -412 -17 -24 -51 -74 -116 -165 -37 -53 -79 -115 -100
-150 -9 -16 -26 -40 -38 -55 -11 -14 -26 -42 -34 -61 -7 -19 -20 -43 -28 -52
-8 -10 -25 -39 -38 -65 -21 -42 -51 -97 -91 -168 -22 -39 -83 -170 -83 -180 0
-6 -14 -37 -30 -70 -17 -33 -30 -65 -30 -72 0 -7 -11 -34 -24 -60 -38 -75 -67
-151 -88 -232 -11 -41 -26 -87 -34 -102 -8 -16 -19 -52 -25 -81 -6 -29 -19
-69 -29 -88 -10 -19 -23 -69 -29 -110 -6 -41 -20 -102 -31 -135 -10 -33 -24
-95 -30 -139 -7 -43 -18 -97 -26 -120 -9 -22 -22 -112 -30 -198 -8 -87 -21
-188 -29 -225 -39 -173 -39 -1070 -1 -1244 9 -37 22 -138 30 -226 9 -88 23
-179 31 -204 9 -24 20 -78 26 -119 5 -41 19 -101 30 -133 10 -32 24 -89 29
-128 6 -39 19 -92 30 -117 11 -26 24 -69 30 -96 6 -26 17 -61 25 -76 8 -15 23
-58 34 -96 26 -92 74 -220 100 -269 12 -21 21 -45 21 -53 0 -7 11 -32 24 -55
13 -23 29 -58 35 -77 15 -47 91 -197 176 -345 19 -33 44 -78 55 -100 21 -41
47 -82 115 -180 44 -64 75 -110 119 -176 32 -49 67 -94 95 -124 10 -11 67 -78
126 -150 158 -192 408 -433 609 -588 16 -12 43 -33 60 -47 31 -26 76 -61 145
-112 20 -15 56 -39 81 -53 25 -14 65 -39 90 -55 25 -16 66 -41 92 -54 26 -14
50 -31 53 -37 4 -6 26 -19 49 -30 22 -11 52 -26 66 -34 14 -8 93 -46 175 -85
83 -40 166 -80 185 -90 19 -10 51 -21 70 -25 19 -4 55 -17 80 -30 25 -12 67
-28 95 -34 27 -7 55 -17 62 -23 18 -14 197 -68 343 -102 36 -8 90 -21 120 -30
88 -24 326 -66 435 -76 55 -6 136 -14 180 -20 294 -34 675 -37 855 -6 47 9
137 20 200 25 63 6 138 17 165 26 28 8 92 22 143 30 51 9 115 24 141 35 27 10
75 23 107 29 33 6 86 22 119 36 33 13 69 25 80 25 11 0 37 9 58 20 21 11 61
27 90 34 29 8 69 23 88 35 18 11 40 21 48 21 30 0 422 196 570 285 89 53 235
149 291 190 15 11 52 37 81 57 30 21 65 45 79 55 14 9 66 51 115 93 50 41 112
93 140 115 82 66 385 373 483 490 149 177 181 218 260 327 80 111 99 140 121
179 11 19 27 41 35 48 9 8 16 19 16 25 0 7 16 35 35 62 19 27 35 53 35 57 0 5
11 23 24 40 13 18 31 48 40 67 9 19 35 69 57 110 22 41 51 103 64 138 l23 63
-26 16 c-15 9 -43 26 -62 38 -19 12 -50 27 -68 33 -18 6 -45 20 -60 30 -15 10
-42 24 -60 30 -18 6 -45 20 -60 30 -15 11 -44 25 -64 31 -20 7 -42 18 -48 26
-6 8 -33 21 -60 30 -27 9 -54 22 -60 30 -6 8 -33 21 -60 30 -27 9 -54 22 -60
30 -6 8 -33 21 -60 30 -27 9 -54 22 -60 30 -6 8 -33 21 -60 30 -27 9 -54 22
-60 30 -6 8 -33 21 -60 30 -27 9 -54 22 -60 30 -6 8 -28 19 -48 26 -20 7 -54
24 -76 38 -28 18 -52 25 -89 26 -57 0 -44 18 -163 -213 -111 -214 -102 -199
-204 -348 -8 -12 -23 -32 -33 -45 -32 -43 -66 -93 -83 -124 -23 -42 -117 -153
-309 -365 -187 -205 -506 -450 -740 -569 -22 -11 -51 -26 -65 -34 -40 -23
-151 -75 -195 -91 -22 -7 -62 -23 -90 -34 -78 -31 -145 -53 -210 -69 -33 -8
-98 -26 -145 -39 -47 -12 -137 -28 -200 -34 -63 -6 -144 -15 -180 -20 -102
-15 -265 -12 -520 10 -266 23 -282 25 -365 50 -33 10 -85 21 -115 25 -30 4
-77 16 -104 27 -27 10 -72 24 -100 29 -28 6 -66 19 -83 30 -18 10 -52 23 -75
29 -24 6 -65 20 -92 33 -91 41 -334 165 -363 185 -15 11 -57 38 -93 61 -89 56
-127 82 -158 109 -15 13 -65 53 -112 91 -95 76 -256 237 -352 353 -124 149
-165 203 -183 238 -10 19 -27 47 -39 62 -12 14 -34 49 -51 78 -16 28 -41 68
-54 88 -13 20 -28 50 -34 67 -5 16 -15 37 -22 45 -17 22 -95 180 -95 194 0 6
-14 38 -30 71 -16 33 -30 67 -30 76 0 9 -11 36 -24 61 -13 25 -29 72 -36 104
-7 33 -18 71 -26 86 -8 15 -23 66 -34 113 -11 48 -25 95 -30 106 -6 10 -17 65
-25 121 -9 57 -22 123 -31 148 -8 25 -19 95 -25 155 -5 61 -17 180 -26 265
-22 209 -23 600 0 815 9 88 21 207 26 265 6 58 17 125 25 148 9 24 20 82 26
130 6 47 19 111 30 141 10 31 26 87 34 124 9 37 22 80 30 95 7 15 19 53 26 86
7 32 23 79 36 104 13 25 24 53 24 62 0 9 11 37 24 62 13 24 27 55 31 69 4 13
28 66 54 118 25 51 54 110 64 130 10 20 22 43 27 51 5 8 19 33 31 55 12 22 31
52 43 67 11 14 35 49 51 77 29 50 84 127 128 181 12 15 36 44 52 65 66 83 166
194 242 265 83 79 281 243 329 272 16 10 49 31 74 48 25 17 58 38 74 48 15 9
45 28 65 41 20 13 49 28 66 34 16 6 44 21 62 33 19 12 47 25 63 29 16 3 34 13
41 21 6 8 36 21 67 30 30 9 69 24 86 34 17 10 47 21 66 25 19 4 58 18 85 31
28 13 70 26 95 29 25 4 77 17 115 30 39 13 122 31 185 39 63 9 144 23 180 31
91 21 546 31 705 16 66 -6 145 -18 175 -26 30 -8 90 -19 132 -25 42 -6 107
-21 145 -35 37 -13 86 -26 108 -30 22 -4 54 -15 70 -25 17 -10 50 -24 75 -30
25 -7 65 -23 90 -36 25 -13 51 -24 59 -24 16 0 159 -70 246 -120 28 -16 73
-41 100 -55 74 -39 216 -134 240 -160 6 -6 21 -19 35 -28 14 -10 41 -30 61
-45 19 -15 55 -42 80 -60 125 -94 441 -432 539 -576 8 -13 22 -30 30 -38 34
-35 150 -209 150 -225 0 -6 11 -24 24 -40 13 -15 31 -44 40 -63 30 -64 72
-130 101 -160 34 -35 53 -34 111 5 20 14 44 25 53 25 9 0 32 11 51 23 19 13
50 29 68 35 18 6 46 20 61 32 16 11 33 20 37 20 8 0 499 239 544 265 14 8 41
22 60 30 19 8 46 22 60 30 14 8 41 22 60 30 19 8 46 22 60 29 14 8 46 25 73
37 39 18 47 26 47 48 0 26 -94 221 -155 321 -19 30 -45 76 -59 102 -14 26 -30
49 -36 53 -6 3 -17 21 -25 38 -15 31 -39 67 -90 137 -14 19 -39 53 -55 75
-137 187 -273 344 -462 531 -155 153 -291 274 -402 359 -111 85 -164 124 -227
165 -20 14 -68 46 -106 71 -37 25 -97 63 -133 84 -36 21 -81 48 -100 59 -118
71 -518 266 -546 266 -5 0 -31 11 -59 24 -51 25 -123 50 -255 90 -41 12 -85
28 -97 34 -12 7 -59 19 -105 28 -45 8 -94 22 -110 30 -15 8 -62 19 -105 25
-43 5 -110 19 -149 29 -39 11 -143 26 -230 34 -87 9 -183 20 -212 26 -106 20
-434 20 -657 1z"/>
<path d="M100214 20589 c-21 -11 -22 -18 -28 -273 -3 -143 -8 -927 -10 -1741
-3 -814 -11 -2816 -17 -4448 -11 -2772 -11 -2970 5 -2985 15 -16 76 -17 689
-20 532 -2 677 1 697 11 l25 13 6 579 c3 319 12 2438 19 4708 13 3896 13 4129
-4 4145 -15 16 -69 17 -689 19 -456 1 -679 -1 -693 -8z"/>
<path d="M122550 20593 c-8 -3 -23 -12 -32 -21 -17 -14 -18 -101 -18 -1553 l0
-1539 -25 -6 c-20 -5 -40 7 -117 74 -51 43 -106 87 -123 96 -16 9 -50 30 -75
46 -25 16 -70 43 -100 59 -161 85 -255 131 -266 131 -7 0 -28 9 -46 19 -18 11
-53 25 -78 31 -25 7 -58 20 -75 30 -16 10 -46 21 -65 25 -19 3 -75 19 -125 35
-158 50 -245 70 -354 85 -58 8 -144 22 -191 31 -67 13 -146 17 -370 17 -253 0
-295 -2 -375 -20 -49 -12 -124 -24 -165 -27 -41 -4 -111 -17 -155 -31 -44 -13
-107 -31 -140 -39 -83 -20 -181 -54 -240 -82 -28 -13 -56 -24 -63 -24 -11 0
-179 -79 -212 -100 -8 -5 -31 -17 -50 -25 -49 -22 -119 -61 -144 -80 -11 -9
-33 -23 -47 -33 -24 -15 -92 -62 -159 -109 -123 -86 -469 -415 -517 -491 -10
-15 -40 -55 -68 -89 -68 -84 -100 -129 -137 -188 -17 -27 -47 -75 -66 -105
-19 -30 -45 -71 -58 -90 -12 -19 -25 -46 -29 -60 -4 -14 -15 -36 -24 -50 -10
-14 -37 -65 -60 -115 -24 -49 -54 -113 -67 -140 -13 -28 -24 -57 -24 -65 0 -9
-13 -42 -29 -75 -16 -33 -32 -76 -36 -95 -4 -19 -14 -47 -21 -62 -8 -15 -21
-58 -29 -95 -9 -37 -24 -88 -34 -113 -11 -25 -24 -79 -30 -120 -7 -41 -20
-102 -30 -135 -10 -33 -22 -89 -25 -125 -4 -36 -19 -135 -33 -220 -26 -151
-26 -168 -26 -590 0 -422 0 -439 26 -590 14 -85 29 -184 33 -220 3 -36 15 -92
25 -125 10 -33 23 -94 30 -135 6 -41 18 -91 26 -110 8 -19 25 -73 38 -120 30
-110 50 -170 86 -251 16 -36 29 -72 29 -80 0 -8 14 -41 30 -74 17 -33 30 -65
30 -71 0 -6 11 -27 24 -46 13 -20 29 -51 35 -71 7 -19 18 -41 26 -47 8 -6 21
-33 30 -60 9 -26 25 -56 35 -65 11 -10 20 -23 20 -28 0 -6 15 -33 34 -61 61
-93 71 -109 83 -129 19 -33 65 -95 119 -160 28 -34 55 -69 60 -79 5 -9 65 -75
133 -148 119 -127 324 -308 430 -380 28 -19 66 -46 85 -60 56 -41 268 -160
356 -200 25 -11 57 -27 72 -36 15 -8 51 -22 80 -30 28 -9 61 -22 72 -29 12 -8
46 -21 76 -29 30 -9 80 -24 110 -35 30 -11 65 -20 77 -21 12 0 57 -11 101 -25
43 -14 122 -29 175 -35 53 -5 134 -16 179 -24 183 -32 513 -30 708 5 30 5 96
14 145 20 50 5 131 20 180 34 50 13 106 26 125 29 19 3 48 13 65 22 16 8 61
22 99 30 38 8 83 23 100 33 17 10 45 22 61 26 17 3 57 20 90 36 33 16 67 29
76 29 9 0 28 9 42 20 14 12 41 26 59 32 18 6 53 24 77 40 25 15 48 28 52 28
12 0 192 116 244 156 69 55 100 82 157 139 l60 59 19 -23 c15 -19 19 -40 19
-110 0 -104 18 -409 26 -433 2 -9 19 -21 36 -27 43 -15 1218 -15 1288 0 l50
11 0 4718 0 4718 -50 11 c-53 11 -1310 15 -1340 4z m-1640 -3787 c74 -3 138
-12 180 -24 36 -11 92 -26 125 -32 33 -7 74 -20 90 -30 17 -10 49 -23 73 -30
23 -6 59 -22 79 -35 20 -14 40 -25 45 -25 26 0 162 -92 271 -184 120 -100 178
-163 299 -325 56 -75 160 -266 172 -315 4 -16 16 -41 27 -54 10 -14 19 -32 19
-41 0 -9 14 -44 30 -78 17 -34 35 -86 40 -115 6 -29 19 -80 30 -113 11 -33 26
-91 34 -130 8 -38 21 -95 30 -125 19 -68 46 -415 46 -589 0 -72 -4 -174 -10
-228 -5 -54 -14 -158 -20 -231 -5 -72 -16 -148 -25 -168 -8 -19 -21 -73 -29
-118 -8 -46 -21 -100 -30 -120 -8 -20 -20 -65 -26 -99 -6 -34 -22 -81 -36
-104 -13 -23 -24 -48 -24 -55 0 -7 -13 -40 -30 -73 -16 -33 -30 -64 -30 -69 0
-18 -74 -161 -97 -189 -13 -16 -23 -35 -23 -42 0 -7 -15 -31 -32 -54 -18 -22
-49 -61 -68 -87 -38 -50 -39 -52 -115 -135 -60 -65 -163 -155 -224 -195 -24
-16 -62 -41 -85 -56 -56 -37 -218 -118 -237 -118 -8 0 -32 -9 -53 -21 -21 -11
-71 -27 -110 -34 -39 -8 -107 -24 -151 -35 -71 -19 -107 -21 -310 -21 -167 0
-248 4 -295 15 -36 8 -112 25 -170 37 -58 12 -121 29 -140 39 -19 10 -51 21
-70 25 -19 4 -55 18 -80 31 -25 13 -61 31 -80 39 -127 57 -329 203 -455 330
-81 80 -194 223 -250 315 -18 30 -44 73 -58 95 -13 22 -30 57 -36 77 -7 20
-19 42 -26 48 -8 7 -21 33 -29 59 -8 25 -26 71 -40 101 -14 30 -26 63 -26 73
0 10 -9 38 -20 62 -11 24 -27 75 -34 112 -8 37 -24 102 -35 143 -11 41 -25
129 -31 195 -6 66 -15 149 -21 185 -17 101 -14 435 4 585 9 72 21 169 26 216
5 47 19 119 30 160 11 41 27 101 35 134 19 77 51 175 81 245 13 30 27 66 31
80 4 14 15 37 26 52 10 15 24 42 30 60 16 44 74 140 184 302 65 95 325 341
424 401 120 72 299 165 320 165 8 0 39 11 68 25 28 13 80 29 115 35 34 7 96
21 137 32 71 20 310 38 410 31 19 -1 87 -4 150 -7z"/>
<path d="M43780 20318 c-27 -14 -51 -35 -60 -53 -13 -27 -15 -559 -18 -4579
-1 -3214 1 -4560 9 -4588 6 -22 21 -51 34 -64 l24 -24 3035 0 3034 0 31 26
c17 14 35 42 41 62 13 50 14 1953 0 2003 -5 19 -24 48 -41 65 l-30 29 -1866 3
c-1346 2 -1870 5 -1880 13 -11 10 -13 607 -14 3513 -1 1925 -4 3512 -8 3526
-4 15 -26 37 -56 55 l-48 30 -1071 3 -1071 2 -45 -22z"/>
<path d="M73520 19759 c-50 -10 -84 -43 -94 -92 -3 -16 -6 -447 -6 -957 0
-850 -1 -929 -17 -941 -13 -11 -102 -15 -447 -19 l-431 -5 -40 -26 c-72 -47
-69 -4 -72 -956 -4 -952 -5 -939 60 -985 32 -23 34 -23 467 -28 328 -4 441 -8
457 -18 l23 -13 4 -1377 c4 -1484 10 -1741 44 -1833 12 -31 26 -85 32 -121 5
-36 16 -84 24 -106 8 -23 20 -70 27 -104 7 -35 25 -87 41 -117 15 -30 28 -59
28 -66 0 -7 7 -18 14 -25 8 -6 23 -33 32 -58 10 -26 26 -57 35 -70 10 -13 23
-40 30 -60 6 -20 25 -52 40 -70 16 -18 29 -36 29 -40 0 -4 19 -27 42 -52 24
-25 64 -72 89 -105 65 -82 93 -110 159 -155 19 -13 41 -30 48 -37 8 -7 23 -18
35 -25 12 -6 49 -32 82 -58 33 -25 87 -60 120 -77 89 -47 192 -93 206 -93 7 0
31 -11 53 -24 57 -33 216 -83 306 -96 41 -6 104 -20 140 -31 78 -24 218 -39
618 -67 139 -10 208 -7 382 18 36 5 108 13 161 18 57 6 115 18 143 30 26 12
75 26 109 32 34 7 81 20 105 30 24 11 59 22 78 26 37 7 413 193 479 237 22 15
60 43 85 62 25 19 58 42 74 51 15 8 60 40 99 70 39 30 74 54 78 54 16 0 69 86
69 111 0 16 -11 49 -25 75 -14 26 -25 53 -25 60 0 8 -15 42 -32 77 -18 35 -46
93 -62 128 -15 35 -34 75 -42 89 -16 30 -38 76 -74 155 -15 33 -53 112 -83
175 -30 63 -58 126 -62 140 -4 14 -18 41 -31 60 -13 19 -24 39 -24 45 0 5 -11
32 -24 60 -52 109 -106 223 -136 290 -18 39 -38 81 -46 95 -8 14 -24 44 -34
68 -30 67 -79 121 -114 127 -24 5 -46 -2 -101 -34 -38 -22 -85 -48 -104 -57
-19 -9 -49 -27 -67 -41 -18 -13 -57 -31 -86 -40 -29 -8 -75 -21 -103 -29 -134
-38 -303 4 -391 98 -55 58 -79 100 -113 200 -47 134 -51 243 -51 1363 0 898 2
1013 16 1033 l15 22 662 0 c770 0 706 -9 751 107 l27 68 -3 840 -3 840 -25 50
c-16 31 -38 57 -60 70 -34 19 -53 20 -690 23 -586 2 -656 4 -672 19 -17 15
-18 66 -18 968 l0 951 -34 33 c-22 22 -50 36 -78 42 -57 11 -2040 9 -2098 -2z"/>
<path d="M105785 18151 c-55 -5 -120 -13 -145 -20 -25 -6 -103 -18 -175 -25
-71 -8 -146 -21 -166 -30 -19 -8 -67 -20 -105 -26 -70 -12 -189 -47 -279 -82
-27 -11 -77 -28 -110 -38 -33 -10 -73 -25 -90 -33 -16 -9 -70 -34 -120 -57
-49 -23 -97 -46 -105 -51 -8 -5 -42 -22 -75 -39 -56 -29 -84 -45 -162 -95 -18
-11 -44 -28 -60 -37 -62 -38 -83 -54 -291 -211 -178 -135 -502 -495 -645 -716
-12 -19 -34 -53 -49 -75 -15 -23 -38 -61 -51 -86 -13 -25 -40 -72 -59 -105
-63 -109 -118 -220 -118 -238 0 -6 -13 -39 -29 -72 -41 -86 -70 -160 -92 -240
-11 -38 -24 -74 -29 -80 -5 -6 -19 -51 -30 -99 -11 -48 -24 -96 -29 -105 -6
-10 -17 -60 -26 -112 -9 -52 -22 -114 -31 -139 -8 -25 -19 -90 -24 -145 -6
-55 -18 -161 -27 -235 -24 -187 -24 -611 0 -800 9 -74 21 -178 26 -230 5 -52
19 -129 30 -170 11 -41 27 -109 35 -150 22 -110 61 -251 79 -287 10 -18 22
-56 28 -85 6 -29 17 -62 23 -73 7 -11 19 -38 26 -60 13 -40 51 -128 95 -220
14 -27 32 -66 40 -85 9 -19 29 -57 45 -85 16 -27 41 -72 56 -100 14 -27 34
-60 44 -75 10 -14 38 -57 64 -96 25 -39 53 -77 61 -84 8 -7 15 -16 15 -21 0
-9 51 -80 97 -134 159 -189 389 -419 521 -519 157 -119 284 -206 300 -206 5 0
15 -7 23 -16 7 -9 38 -29 68 -45 31 -17 67 -36 81 -44 33 -19 77 -41 120 -60
19 -8 58 -26 85 -40 94 -46 170 -77 222 -91 29 -7 69 -23 90 -34 21 -11 47
-20 58 -20 11 0 52 -12 90 -25 39 -14 99 -30 135 -35 36 -6 90 -19 120 -30 30
-10 89 -21 130 -25 41 -3 138 -16 215 -27 205 -31 601 -31 800 -1 77 12 173
25 213 28 40 4 92 13 115 21 23 9 83 24 132 34 107 22 262 69 325 99 25 11 52
21 61 21 17 0 122 44 199 84 25 13 56 27 70 31 14 4 37 16 52 27 15 10 42 24
60 30 18 6 42 19 53 28 11 10 38 27 60 39 22 12 60 35 85 51 25 16 61 38 81
49 21 11 45 28 55 38 9 10 27 25 40 33 165 111 381 314 560 526 65 78 129 157
142 175 12 19 34 50 47 69 13 19 33 52 44 72 12 20 25 40 31 43 6 4 23 29 38
57 15 27 39 71 54 97 15 25 38 69 52 98 14 28 30 54 35 58 6 3 18 30 27 60 8
30 19 57 24 60 5 3 18 31 30 63 12 31 32 79 46 106 13 28 24 58 24 68 0 11 9
37 20 58 11 22 27 70 36 106 8 37 22 80 30 96 8 15 21 65 29 111 8 45 21 103
30 127 9 25 23 97 31 160 9 63 22 142 30 175 38 155 38 995 0 1150 -8 33 -21
112 -30 175 -8 63 -22 135 -31 160 -9 24 -22 82 -30 127 -8 46 -21 96 -29 111
-8 16 -22 59 -30 96 -9 36 -25 84 -36 106 -11 21 -20 48 -20 58 0 10 -11 41
-25 68 -14 27 -30 65 -36 84 -7 19 -22 53 -34 75 -13 22 -26 53 -29 69 -4 17
-16 41 -26 55 -10 14 -25 42 -34 61 -9 19 -32 62 -51 95 -18 33 -45 81 -59
107 -14 26 -30 49 -36 53 -6 3 -19 23 -31 43 -11 20 -33 55 -50 77 -16 22 -41
58 -56 80 -14 22 -78 101 -142 175 -97 113 -167 185 -336 345 -12 11 -57 47
-100 80 -43 33 -94 72 -114 88 -20 15 -49 35 -65 45 -16 9 -41 27 -56 40 -15
12 -32 22 -36 22 -5 0 -31 16 -58 35 -27 19 -55 35 -62 35 -6 0 -17 7 -24 15
-12 15 -190 105 -207 105 -6 0 -21 8 -34 19 -13 10 -42 24 -64 31 -22 7 -51
19 -65 28 -14 9 -52 23 -85 33 -33 9 -82 26 -110 37 -88 34 -208 71 -260 78
-27 4 -81 17 -120 29 -38 13 -108 26 -155 30 -47 4 -130 16 -185 26 -113 22
-531 34 -710 20z m635 -1362 c52 -11 135 -29 183 -39 49 -10 94 -23 100 -29 7
-5 39 -17 72 -26 33 -10 76 -26 95 -36 19 -10 55 -28 80 -39 64 -29 122 -61
157 -87 17 -13 34 -23 38 -23 3 0 23 -13 43 -28 20 -16 62 -47 92 -70 190
-142 385 -387 505 -632 25 -52 57 -115 70 -140 12 -25 26 -61 30 -80 4 -19 16
-50 26 -70 11 -20 24 -62 30 -95 6 -32 19 -79 29 -105 10 -25 21 -68 25 -96 4
-27 19 -116 33 -199 24 -137 26 -174 27 -430 0 -260 -2 -292 -28 -455 -16 -96
-37 -206 -48 -245 -11 -38 -27 -99 -35 -135 -8 -36 -25 -90 -39 -121 -14 -31
-25 -62 -25 -68 0 -7 -13 -40 -29 -74 -43 -93 -49 -107 -84 -169 -18 -31 -44
-79 -59 -105 -14 -27 -34 -55 -42 -62 -9 -8 -16 -18 -16 -23 0 -6 -12 -25 -27
-43 -16 -18 -46 -56 -68 -84 -103 -135 -272 -282 -450 -393 -60 -37 -196 -108
-209 -108 -5 0 -32 -11 -60 -24 -77 -37 -241 -84 -331 -97 -44 -6 -109 -18
-145 -26 -93 -22 -446 -22 -550 0 -41 9 -121 23 -177 31 -57 9 -115 22 -130
29 -16 8 -50 19 -78 26 -108 25 -337 137 -481 236 -158 108 -349 297 -437 430
-15 22 -34 51 -44 65 -47 71 -66 104 -118 205 -31 61 -65 138 -76 172 -11 34
-24 65 -28 68 -5 3 -17 37 -26 76 -9 40 -22 84 -30 99 -8 15 -19 58 -25 96 -6
38 -20 107 -31 154 -29 127 -38 258 -39 535 0 273 11 444 35 520 8 28 20 88
26 135 6 47 21 110 34 140 12 30 25 74 29 98 4 24 17 65 30 91 14 26 27 64 31
84 4 21 15 47 24 60 10 12 25 42 35 67 10 25 23 52 30 60 7 8 19 31 26 50 7
19 21 44 30 55 10 11 25 34 34 50 21 37 58 91 85 125 11 14 37 45 57 70 87
107 245 251 354 323 30 20 66 45 80 55 14 11 43 28 65 39 22 11 54 27 70 36
57 31 162 77 174 77 6 0 37 11 69 24 31 13 93 31 137 40 44 9 105 23 135 32
118 34 581 36 740 3z"/>
<path d="M110412 17985 l-33 -14 4 -2098 c3 -1839 5 -2113 19 -2218 9 -66 19
-168 23 -227 3 -59 15 -138 26 -175 10 -38 24 -108 30 -157 6 -49 19 -108 30
-132 10 -25 24 -75 30 -112 6 -37 19 -83 29 -102 9 -19 22 -56 29 -82 6 -26
22 -68 36 -94 14 -26 25 -55 25 -65 0 -10 16 -48 35 -86 19 -37 35 -73 35 -79
0 -6 7 -17 14 -24 8 -6 22 -33 31 -60 9 -26 25 -56 35 -65 11 -10 20 -22 20
-28 0 -9 46 -83 102 -165 173 -252 463 -528 688 -654 19 -10 53 -30 75 -44 22
-13 60 -33 85 -44 25 -12 68 -32 95 -45 81 -40 187 -82 225 -90 19 -4 51 -15
70 -25 19 -10 74 -25 122 -34 47 -9 103 -23 123 -32 20 -8 86 -19 148 -25 62
-6 146 -17 187 -25 161 -30 584 -27 735 6 22 5 90 14 150 20 61 6 137 19 170
30 33 10 78 22 100 25 50 8 224 60 290 87 28 11 71 26 97 33 25 8 64 22 85 33
91 47 189 92 199 92 6 0 17 6 23 14 7 8 35 25 64 39 29 14 59 32 66 41 7 9 18
16 23 16 12 0 57 35 134 104 54 49 55 49 74 30 16 -16 21 -44 30 -164 17 -224
21 -242 50 -257 19 -10 163 -13 630 -13 333 0 623 5 644 10 21 4 43 15 47 22
5 7 9 1541 9 3409 l0 3396 -21 19 c-20 18 -48 19 -685 22 -566 2 -669 0 -699
-12 l-35 -15 0 -1764 c0 -1771 -7 -2215 -35 -2347 -8 -36 -22 -110 -31 -165
-8 -55 -25 -129 -36 -165 -11 -36 -27 -92 -35 -125 -7 -33 -20 -69 -28 -81 -7
-11 -20 -43 -28 -70 -21 -66 -71 -163 -162 -313 -84 -138 -288 -337 -419 -408
-239 -130 -434 -183 -741 -201 -149 -8 -556 32 -628 62 -19 7 -57 19 -86 25
-53 11 -181 69 -236 105 -113 76 -225 176 -263 236 -9 14 -29 41 -44 60 -32
41 -148 266 -148 286 0 8 -11 36 -24 62 -13 26 -27 67 -31 92 -4 25 -17 75
-30 111 -12 36 -26 95 -30 130 -4 35 -18 118 -30 184 -41 205 -45 432 -45
2416 l0 1856 -21 19 c-20 18 -48 19 -688 21 -562 2 -671 0 -699 -12z"/>
<path d="M61735 17879 c-44 -5 -119 -13 -167 -18 -48 -5 -118 -19 -155 -30
-37 -11 -93 -26 -123 -35 -165 -44 -344 -123 -494 -217 -33 -21 -74 -46 -91
-55 -56 -31 -219 -168 -316 -266 -80 -80 -99 -95 -112 -85 -14 12 -20 44 -48
265 -14 115 -29 213 -35 233 -2 9 -24 30 -47 45 l-42 29 -996 0 -996 0 -42
-29 c-23 -16 -44 -38 -46 -50 -3 -12 -4 -1503 -3 -3313 l3 -3292 23 -23 23
-23 1082 -3 c799 -2 1089 1 1110 9 15 7 33 21 40 33 9 16 14 437 18 1811 6
1650 11 1969 32 2002 4 6 14 57 22 113 7 56 21 113 30 127 9 13 23 48 32 76 8
29 24 64 34 79 11 14 19 31 19 36 0 17 61 92 136 167 73 74 180 140 272 169
26 8 67 22 92 32 111 40 525 36 595 -6 17 -10 50 -24 75 -31 50 -14 68 -27
173 -115 67 -57 147 -156 147 -181 0 -7 11 -24 24 -40 13 -15 29 -46 36 -68 7
-22 19 -53 27 -68 8 -15 23 -69 34 -120 11 -51 27 -121 35 -157 27 -118 33
-495 34 -2144 l0 -1629 22 -36 c11 -20 28 -42 36 -48 13 -10 248 -13 1100 -13
l1084 0 28 30 c64 69 60 -72 60 2071 0 1376 -3 1956 -11 1976 -6 15 -15 105
-20 198 -12 231 -28 418 -38 452 -5 15 -16 73 -26 128 -9 55 -27 141 -40 190
-14 50 -27 110 -31 135 -4 25 -17 65 -29 90 -13 25 -26 68 -31 95 -4 28 -20
75 -35 106 -16 31 -29 62 -29 69 0 7 -11 32 -24 54 -13 23 -29 60 -35 84 -7
23 -16 42 -20 42 -5 0 -21 24 -35 53 -26 49 -53 98 -101 177 -11 18 -32 47
-46 64 -14 17 -30 39 -35 49 -22 39 -298 327 -314 327 -4 0 -19 10 -33 23 -90
77 -316 217 -351 217 -7 0 -27 11 -46 25 -19 14 -40 25 -48 25 -7 0 -37 11
-65 24 -29 14 -74 30 -102 36 -27 6 -69 20 -92 30 -24 10 -64 22 -90 25 -27 4
-90 18 -142 31 -51 13 -148 29 -215 35 -156 15 -578 19 -681 8z"/>
<path d="M68485 17880 c-16 -4 -81 -8 -144 -9 -113 -1 -174 -8 -301 -37 -36
-8 -100 -19 -142 -25 -43 -5 -103 -19 -134 -29 -30 -11 -83 -24 -117 -30 -33
-7 -77 -20 -96 -29 -20 -10 -61 -24 -91 -31 -30 -7 -72 -21 -92 -31 -21 -11
-43 -19 -50 -19 -7 0 -44 -16 -82 -35 -39 -19 -76 -35 -85 -35 -8 0 -33 -11
-55 -24 -23 -13 -52 -27 -66 -31 -14 -4 -34 -15 -45 -25 -11 -9 -36 -23 -55
-30 -19 -7 -42 -19 -50 -25 -8 -7 -33 -22 -56 -33 -37 -19 -124 -76 -194 -127
-15 -11 -40 -29 -56 -40 -16 -11 -55 -40 -87 -65 -33 -25 -71 -54 -85 -65
-124 -95 -409 -387 -501 -515 -22 -30 -46 -62 -53 -70 -8 -8 -22 -28 -32 -43
-9 -16 -24 -36 -32 -45 -27 -30 -63 -86 -80 -122 -9 -19 -23 -43 -32 -53 -39
-44 -212 -384 -212 -417 0 -7 -11 -32 -24 -54 -13 -23 -29 -65 -35 -94 -6 -29
-19 -69 -30 -90 -10 -20 -22 -55 -26 -77 -3 -22 -15 -60 -26 -85 -10 -25 -23
-76 -29 -115 -6 -38 -21 -110 -34 -160 -13 -49 -27 -134 -31 -188 -3 -54 -14
-133 -22 -175 -12 -58 -17 -155 -20 -397 -4 -289 -2 -331 16 -430 11 -60 25
-168 31 -240 6 -82 17 -148 29 -180 10 -27 22 -77 26 -110 3 -33 20 -99 36
-147 16 -47 29 -95 29 -106 0 -11 11 -44 24 -73 14 -30 28 -72 32 -94 4 -22
15 -51 24 -65 9 -14 23 -43 30 -65 7 -22 21 -52 31 -66 10 -14 21 -38 25 -54
9 -38 74 -164 102 -200 12 -15 22 -32 22 -38 0 -6 10 -27 23 -46 13 -20 41
-65 62 -101 21 -36 50 -79 64 -97 14 -18 40 -50 56 -73 144 -196 513 -575 611
-628 13 -7 24 -17 24 -22 0 -5 17 -18 38 -29 20 -10 46 -28 56 -40 11 -12 23
-21 29 -21 5 0 24 -12 43 -27 68 -56 94 -74 131 -89 21 -9 45 -22 54 -30 20
-18 74 -47 199 -108 52 -26 116 -58 143 -71 26 -14 53 -25 61 -25 7 0 34 -11
61 -25 26 -14 70 -31 98 -37 27 -5 73 -21 101 -34 28 -13 59 -24 69 -24 10 0
51 -11 90 -24 40 -14 108 -30 152 -36 44 -7 105 -20 135 -30 31 -11 113 -24
185 -30 72 -5 155 -15 185 -21 86 -16 414 -26 588 -17 304 16 614 46 640 62
13 8 149 33 215 40 32 4 75 15 96 25 20 11 55 22 76 26 22 4 79 20 127 36 47
16 95 29 105 29 10 0 36 9 57 19 21 11 58 26 82 35 25 8 56 24 71 35 14 12 34
21 43 21 10 0 43 13 73 29 30 16 71 34 92 41 21 7 53 23 73 36 19 13 39 24 44
24 6 0 23 10 38 23 16 12 48 33 71 47 56 33 243 157 294 194 38 28 137 119
301 276 62 59 135 148 212 254 12 17 38 51 57 76 51 67 100 141 124 191 42 85
63 124 77 139 7 9 20 36 29 60 9 24 22 51 30 60 8 9 23 42 34 72 34 98 -4 174
-97 198 -26 6 -60 20 -77 30 -16 9 -48 21 -70 25 -21 3 -56 15 -77 26 -20 10
-61 24 -90 30 -29 6 -70 20 -90 30 -21 11 -61 24 -90 30 -29 6 -70 20 -90 30
-21 11 -61 24 -90 30 -29 6 -68 19 -86 30 -18 10 -60 26 -95 35 -34 9 -67 20
-72 24 -6 5 -47 19 -90 31 -44 11 -85 25 -90 30 -6 4 -47 18 -90 30 -44 11
-85 25 -90 29 -6 5 -42 18 -82 28 -39 11 -82 27 -95 36 -13 8 -48 20 -78 27
-30 6 -71 20 -91 30 -20 10 -65 25 -100 34 -35 9 -74 19 -85 22 -32 8 -86 -22
-112 -63 -13 -20 -44 -75 -69 -123 -25 -47 -53 -95 -63 -106 -10 -11 -24 -33
-33 -50 -28 -56 -171 -181 -256 -224 -22 -12 -42 -25 -45 -30 -4 -5 -30 -17
-59 -26 -28 -10 -62 -24 -75 -32 -13 -8 -58 -20 -100 -28 -42 -8 -99 -22 -127
-31 -38 -13 -100 -18 -260 -21 -192 -5 -217 -3 -295 17 -47 12 -121 28 -164
36 -43 7 -87 20 -96 29 -9 8 -39 22 -66 30 -62 19 -162 83 -258 165 -93 79
-266 316 -266 365 0 11 -9 35 -21 54 -11 19 -32 70 -45 115 -14 45 -27 88 -30
97 -4 12 4 20 27 28 23 8 623 11 2218 11 1202 0 2203 3 2225 7 36 6 41 10 71
76 32 68 32 70 19 131 -7 33 -13 120 -14 191 0 199 -27 548 -50 645 -11 47
-24 123 -30 169 -5 46 -18 116 -29 155 -11 39 -22 93 -26 119 -3 27 -17 76
-30 110 -12 34 -26 82 -30 107 -4 25 -18 71 -31 102 -13 32 -24 65 -24 75 0
10 -14 47 -30 81 -17 35 -30 71 -30 79 0 37 -222 496 -270 559 -14 18 -38 56
-55 84 -16 29 -39 64 -51 78 -12 15 -27 38 -34 52 -14 27 -46 70 -125 166 -27
34 -63 79 -80 100 -87 112 -316 327 -511 479 -45 35 -134 95 -141 95 -2 0 -24
14 -47 30 -51 37 -63 44 -258 142 -179 90 -226 110 -303 133 -32 9 -68 23 -80
31 -12 8 -48 19 -81 24 -32 6 -84 20 -114 30 -30 11 -102 29 -160 39 -58 10
-125 24 -150 31 -98 25 -821 50 -895 30z m443 -1829 c75 -13 142 -31 172 -46
27 -14 55 -25 63 -25 23 0 130 -75 206 -146 102 -95 174 -184 245 -306 49 -83
57 -112 40 -137 l-15 -21 -960 0 -959 0 -12 25 c-10 22 -5 36 36 117 26 51 61
111 77 133 16 22 40 56 53 75 26 39 125 132 177 168 85 57 145 92 160 92 9 0
37 11 63 25 35 18 85 31 183 45 74 10 138 22 142 25 11 12 204 -2 329 -24z"/>
<path d="M50576 17735 c-46 -16 -81 -55 -96 -105 -14 -49 -14 -4082 0 -4130 6
-19 17 -123 26 -230 8 -107 19 -217 24 -245 29 -166 54 -291 75 -370 13 -49
26 -108 30 -130 4 -21 15 -55 24 -75 10 -19 24 -60 31 -90 7 -30 24 -75 37
-99 12 -24 23 -51 23 -59 0 -14 44 -113 76 -172 8 -14 25 -47 40 -75 101 -194
292 -437 454 -576 102 -87 157 -129 169 -129 5 0 22 -11 38 -24 15 -13 44 -31
63 -41 19 -9 44 -25 55 -35 11 -10 39 -23 61 -29 23 -6 47 -18 54 -26 6 -7 28
-19 48 -26 20 -6 51 -20 68 -30 17 -10 55 -24 85 -30 30 -6 69 -19 86 -29 18
-11 61 -24 95 -30 35 -6 91 -20 125 -31 34 -11 106 -24 160 -30 132 -12 205
-23 220 -32 7 -5 138 -8 292 -8 246 -1 289 2 363 19 46 11 117 23 158 25 42 3
95 14 120 25 25 11 72 26 105 32 33 7 76 20 95 30 19 10 55 23 80 30 25 7 57
21 71 31 15 10 33 19 41 19 8 0 32 10 53 21 22 12 58 30 80 41 22 11 49 28 60
38 11 9 31 24 46 31 63 34 98 60 213 156 67 55 153 134 190 174 48 52 70 69
78 61 6 -6 19 -88 29 -184 33 -301 44 -350 89 -373 44 -23 2036 -22 2080 0 65
34 60 -253 60 3347 0 2584 -3 3278 -13 3298 -7 13 -36 37 -66 52 l-54 28
-1037 -2 -1036 -3 -42 -27 c-27 -19 -45 -40 -54 -65 -10 -30 -14 -410 -19
-1863 -3 -1004 -9 -1841 -13 -1860 -4 -19 -14 -79 -22 -133 -26 -176 -123
-385 -228 -497 -90 -95 -236 -179 -371 -216 -66 -17 -250 -38 -345 -38 -97 -1
-261 29 -327 60 -28 13 -55 24 -60 24 -4 0 -28 16 -52 35 -24 19 -47 35 -51
35 -10 0 -79 69 -118 119 -52 66 -161 291 -172 354 -5 31 -13 64 -18 74 -17
34 -33 141 -42 294 -5 86 -10 905 -10 1856 l0 1702 -26 56 c-47 98 56 90
-1124 92 -867 2 -1041 0 -1074 -12z"/>
<path d="M78319 17740 c-40 -12 -75 -38 -87 -66 -9 -19 -12 -846 -12 -3300 0
-2956 2 -3279 16 -3309 8 -18 27 -38 42 -44 19 -8 335 -11 1110 -9 l1084 3 23
27 c15 18 26 46 30 80 3 29 5 1514 3 3300 l-3 3248 -31 30 c-17 17 -48 35 -70
40 -48 12 -2068 12 -2105 0z"/>
<path d="M81400 17741 c-47 -12 -87 -40 -100 -71 -20 -48 -8 -123 26 -163 16
-19 46 -59 67 -88 66 -95 72 -102 97 -133 14 -16 34 -44 45 -62 26 -41 66 -98
110 -154 20 -25 43 -58 53 -74 9 -15 31 -46 47 -67 17 -21 41 -54 55 -74 14
-19 48 -66 75 -103 28 -37 58 -78 68 -92 10 -14 36 -50 57 -80 22 -30 51 -71
65 -90 14 -19 41 -55 60 -80 19 -25 44 -62 56 -82 13 -21 26 -38 31 -38 4 0
15 -14 24 -32 9 -17 38 -59 64 -93 26 -34 55 -75 64 -92 8 -17 19 -33 23 -35
9 -3 53 -61 95 -123 31 -45 64 -90 109 -150 16 -22 41 -58 56 -80 14 -22 32
-44 39 -48 8 -4 21 -22 30 -40 17 -32 140 -203 202 -279 17 -22 32 -44 32 -48
0 -4 16 -28 35 -52 19 -23 44 -55 56 -69 11 -15 26 -36 32 -47 7 -11 44 -64
82 -117 39 -54 77 -107 85 -119 8 -11 37 -51 65 -88 27 -37 64 -86 80 -109 17
-23 45 -63 64 -87 51 -69 57 -103 26 -149 -36 -54 -70 -101 -110 -153 -20 -25
-43 -58 -53 -74 -9 -15 -30 -46 -47 -67 -16 -21 -41 -54 -55 -74 -14 -20 -37
-52 -52 -72 -16 -20 -28 -39 -28 -43 0 -5 -27 -41 -60 -80 -33 -39 -60 -75
-60 -80 0 -4 -15 -26 -32 -48 -18 -23 -43 -56 -56 -74 -21 -30 -80 -111 -118
-163 -8 -11 -22 -32 -32 -47 -9 -14 -38 -53 -64 -86 -26 -34 -54 -74 -63 -91
-8 -17 -19 -31 -23 -31 -7 -1 -49 -58 -92 -125 -11 -16 -35 -50 -54 -75 -19
-25 -60 -81 -91 -125 -31 -44 -71 -100 -90 -125 -39 -50 -81 -109 -107 -149
-10 -14 -27 -37 -38 -51 -12 -14 -38 -49 -58 -77 -20 -29 -62 -87 -92 -128
-61 -83 -119 -164 -150 -210 -12 -16 -60 -83 -108 -147 -48 -65 -103 -140
-122 -168 -19 -28 -48 -68 -65 -90 -16 -21 -40 -54 -53 -72 -36 -53 -99 -141
-117 -163 -8 -11 -23 -32 -33 -47 -9 -14 -37 -53 -62 -85 -25 -32 -53 -69 -62
-83 -10 -14 -31 -43 -48 -65 -75 -99 -81 -185 -16 -237 20 -16 103 -18 1306
-17 l1285 0 30 27 c23 21 199 277 290 423 6 9 23 36 39 60 35 52 90 134 113
169 9 14 37 56 62 93 25 38 57 86 71 107 33 49 56 84 78 116 9 14 28 45 42 69
24 41 106 166 150 230 11 17 32 46 45 65 13 19 33 51 44 70 32 56 86 114 99
106 6 -4 27 -30 45 -59 18 -29 42 -65 53 -81 10 -16 44 -68 74 -116 30 -48 73
-114 95 -146 21 -33 46 -71 55 -85 42 -70 57 -94 76 -118 12 -14 31 -44 43
-66 12 -22 35 -60 51 -85 17 -25 38 -58 48 -73 9 -16 29 -45 45 -64 15 -20 27
-41 27 -48 0 -7 15 -31 33 -53 17 -22 43 -59 57 -83 50 -84 89 -145 108 -169
10 -14 29 -43 41 -65 12 -22 33 -56 46 -75 13 -19 35 -50 47 -68 13 -18 30
-43 40 -55 l16 -22 1291 -3 c1269 -2 1291 -2 1310 17 52 52 49 141 -6 214 -34
45 -68 93 -94 132 -10 17 -34 50 -53 75 -19 25 -60 81 -91 125 -30 44 -71 100
-90 125 -19 25 -42 56 -52 70 -9 14 -24 34 -34 45 -9 11 -25 34 -36 51 -16 28
-79 117 -166 232 -15 20 -43 60 -62 87 -19 28 -48 68 -64 90 -46 61 -72 97
-116 160 -22 32 -50 72 -63 89 -12 17 -34 49 -49 71 -32 49 -85 118 -97 126
-4 4 -18 22 -30 42 -33 54 -77 119 -102 152 -29 37 -43 55 -93 125 -22 30 -51
71 -66 90 -64 86 -81 110 -97 137 -10 15 -33 48 -53 73 -19 25 -60 81 -90 125
-31 44 -71 100 -90 125 -19 25 -44 62 -56 83 -13 20 -26 37 -31 37 -4 0 -15
14 -24 32 -9 17 -38 59 -64 92 -26 34 -53 72 -60 86 -7 14 -34 51 -59 82 -25
31 -62 80 -81 109 -19 28 -47 65 -61 83 -14 17 -34 45 -43 61 -19 35 -59 91
-85 120 -10 11 -27 37 -39 58 l-22 38 24 48 c14 26 32 53 41 61 9 7 25 31 36
52 11 21 23 38 27 38 5 0 18 17 31 38 12 20 37 57 56 82 19 25 42 59 51 75 9
17 28 44 41 60 39 49 86 111 113 150 14 20 40 54 58 77 17 22 32 43 32 47 0 4
26 42 58 84 54 72 103 140 154 215 13 18 37 51 53 72 34 44 67 90 96 135 10
17 33 48 50 70 16 22 47 64 67 94 49 71 69 98 122 168 25 32 57 76 71 98 49
75 54 83 101 143 25 33 52 70 58 83 7 13 20 32 29 41 9 9 34 42 56 72 22 31
51 72 65 91 14 19 35 49 48 67 12 18 40 58 62 88 21 30 49 70 62 88 13 18 37
50 53 71 17 21 38 52 47 67 10 16 32 47 48 69 17 22 47 64 68 94 20 30 47 68
59 85 13 17 33 45 45 62 13 17 43 58 68 90 114 149 160 229 160 278 0 40 -41
87 -97 112 -49 21 -2448 21 -2496 0 -52 -24 -91 -66 -142 -151 -26 -43 -54
-85 -62 -93 -7 -8 -20 -27 -29 -43 -8 -16 -28 -48 -45 -72 -16 -23 -42 -60
-56 -82 -15 -22 -43 -64 -62 -93 -20 -30 -45 -68 -55 -85 -17 -29 -103 -163
-137 -214 -8 -11 -35 -52 -60 -90 -25 -37 -53 -79 -62 -93 -9 -14 -37 -54 -61
-90 -25 -36 -46 -70 -46 -77 0 -7 -13 -27 -29 -45 -15 -18 -33 -43 -40 -55 -6
-13 -17 -23 -24 -23 -20 1 -64 43 -82 80 -10 19 -27 47 -39 61 -12 15 -29 39
-38 55 -10 16 -31 49 -48 74 -17 25 -38 58 -48 73 -9 16 -29 45 -44 64 -16 20
-28 40 -28 46 0 5 -12 23 -26 41 -35 43 -94 134 -94 145 0 4 -7 14 -16 22 -8
7 -25 31 -36 53 -11 23 -30 53 -42 67 -11 15 -30 42 -41 60 -44 74 -58 95 -81
122 -13 16 -24 32 -24 36 0 4 -11 21 -25 37 -14 16 -25 33 -25 38 0 5 -12 25
-27 45 -16 20 -44 60 -64 89 -20 29 -54 65 -75 80 l-39 27 -1220 1 c-671 1
-1231 -1 -1245 -5z"/>
</g>
</svg>
